<svg version="1.1" viewBox="0 0 180 180" xmlns="http://www.w3.org/2000/svg">
	<path d="m0.003712 90v-90h180v89.358c0 49.14-0.0771 89.331-0.18001 89.331-0.12853-0.0256-0.46285-0.0256-0.79716 0-0.46285 0.0256-0.56569 0.15431-0.46285 0.66857l0.12853 0.64289h-178.69zm57.651 59.271c0-15.275-0.0257-28.209-0.0257-28.723l-0.02572-0.97714h-54.771v57.6l27.41-0.0515 27.437-0.0771zm59.091-0.90002v-28.802h-56.315v57.6h56.315zm60.43 0v-28.802h-57.6v57.6h57.6zm-119.55-31.937c0.02571-0.43716 0.02571-55.571 0-55.8-0.02571-0.12857-12.343-0.20571-27.41-0.20571h-27.388v56.315h27.388c21.73 0 27.388-0.0771 27.41-0.30857zm59.118-27.849v-28.157h-56.315v56.315h56.315zm60.43 0v-28.157h-57.6v56.315h57.6zm-119.65-31.089c0.10285-0.10285 0.2057-51.327 0.10285-54.207-0.025707-0.43715-1.5172-0.46287-27.41-0.46287h-27.388v27.333c0 15.043 0.05143 27.411 0.10286 27.464 0.18 0.18 54.411 0.05142 54.591-0.12857zm58.655 0.12857 0.56573-0.02571v-54.771h-56.315v27.333c0 15.043 0.05143 27.411 0.10286 27.464 0.07715 0.07715 52.92 0.07715 55.647 0zm60.944-27.387 0.0515-27.411h-57.6v27.36c0 25.431 0.0257 27.387 0.43715 27.464 0.23143 0.05143 13.166 0.05143 28.723 0.05143l28.311-0.02573z"/>
	<path d="m40.995 131.32a20.39 20.391 0 0 1 7.6915 27.781 20.39 20.391 0 0 1-27.773 7.714 20.39 20.391 0 0 1-7.7363-27.768 20.39 20.391 0 0 1 27.76-7.7589"/>
	<path d="m100.06 131.32a20.39 20.391 0 0 1 7.6915 27.781 20.39 20.391 0 0 1-27.773 7.714 20.39 20.391 0 0 1-7.7363-27.768 20.39 20.391 0 0 1 27.76-7.7589"/>
	<path d="m159.12 131.32a20.39 20.391 0 0 1 7.6915 27.781 20.39 20.391 0 0 1-27.773 7.714 20.39 20.391 0 0 1-7.7363-27.768 20.39 20.391 0 0 1 27.76-7.7589"/>
	<path d="m157.82 72.262a20.39 20.391 0 0 1 7.6915 27.781 20.39 20.391 0 0 1-27.773 7.714 20.39 20.391 0 0 1-7.7363-27.768 20.39 20.391 0 0 1 27.76-7.7589"/>
	<path d="m100.06 13.199a20.39 20.391 0 0 1 7.6915 27.781 20.39 20.391 0 0 1-27.773 7.714 20.39 20.391 0 0 1-7.7363-27.768 20.39 20.391 0 0 1 27.76-7.7589"/>
</svg>
