<svg version="1.1" viewBox="0 0 80 15" xmlns="http://www.w3.org/2000/svg">
	<path d="m0.49373 0.53322h79v14h-79z" fill="#fff"/>
	<path d="m-0.0058594 0.033203v15h80v-15zm1 1h78v13h-78z"/>
	<path d="m1.975 1.9332h76.038v11.2h-76.038z"/>
	<path d="m1.9749 1.9453v11.2h20.081c1.2923-1.6337 2.1644-3.5323 2.1644-5.6001 0-2.0541-0.85708-3.9734-2.1335-5.6001z" fill="#abb1aa"/>
	<path d="m19.29 7.5333c0.0019 3.4918-2.991 6.324-6.6852 6.3262-3.6942 0.0018-6.6911-2.8267-6.6932-6.3186v-0.00807c-0.0019-3.4918 2.991-6.324 6.6852-6.326 3.6947-0.00179 6.6911 2.8268 6.6932 6.3186v0.00718z" fill="#fff"/>
	<path d="m18.038 2.3836c1.4833 1.402 2.2251 3.119 2.2251 5.1497 0 2.0311-0.72893 3.7297-2.1868 5.0957-1.5471 1.4387-3.3757 2.1578-5.4856 2.1578-2.0844 0-3.8813-0.71326-5.3901-2.1398-1.5091-1.4263-2.2635-3.1307-2.2635-5.1137 0-1.9825 0.75442-3.6991 2.2635-5.1497 1.4705-1.4024 3.2673-2.1036 5.3901-2.1036 2.1485 0 3.9639 0.70111 5.4472 2.1036zm-9.8387 0.9432c-1.2541 1.1973-1.8809 2.5997-1.8809 4.2085 0 1.6083 0.62062 2.9989 1.8616 4.1716 1.2412 1.1732 2.7189 1.7595 4.4334 1.7595s3.2047-0.59221 4.4714-1.7773c1.2027-1.1007 1.8042-2.4847 1.8042-4.1538 0-1.6565-0.61134-3.0625-1.8333-4.2175-1.2217-1.1547-2.7024-1.7323-4.4424-1.7323-1.74 9e-6 -3.2116 0.58053-4.4141 1.7413zm3.3002 3.5009c-0.19163-0.39489-0.47848-0.59245-0.86106-0.59245-0.67632 0-1.0144 0.43043-1.0144 1.2909 0 0.86062 0.33804 1.2906 1.0144 1.2906 0.44661 0 0.7656-0.20947 0.957-0.62932l0.93747 0.47183c-0.44684 0.75039-1.1172 1.1257-2.0111 1.1257-0.6894 0-1.2417-0.19979-1.6564-0.59895-0.41542-0.3996-0.62252-0.95041-0.62252-1.6526 0-0.68987 0.21377-1.2375 0.64156-1.6432 0.42779-0.40569 0.96055-0.60844 1.5993-0.60844 0.94485 0 1.6214 0.35192 2.0304 1.055zm4.4105 0c-0.19188-0.39489-0.47302-0.59245-0.84369-0.59245-0.68989 0-1.0351 0.43043-1.0351 1.2909 0 0.86062 0.34519 1.2906 1.0351 1.2906 0.44733 0 0.7606-0.20947 0.9394-0.62932l0.95842 0.47183c-0.44613 0.75039-1.1156 1.1257-2.0078 1.1257-0.68846 0-1.2396-0.19979-1.654-0.59895-0.41374-0.3996-0.62108-0.95041-0.62108-1.6526 0-0.68987 0.21043-1.2375 0.63108-1.6432 0.42041-0.40569 0.95557-0.60844 1.606-0.60844 0.94318 0 1.6188 0.35192 2.0263 1.055z"/>
	<path d="m29.052 6.9013c0.24241 9.3e-6 0.42622-0.050028 0.55142-0.15004 0.1252-0.10002 0.18779-0.24755 0.1878-0.4426-1e-5 -0.19255-0.06261-0.33883-0.1878-0.43886-0.1252-0.10252-0.30901-0.15378-0.55142-0.15379h-0.85109v1.1853h0.85109m0.05194 2.4494c0.30901 0 0.54076-0.061321 0.69527-0.1838 0.15716-0.12252 0.23575-0.30757 0.23575-0.55513 0-0.24256-0.07722-0.42385-0.23176-0.54388-0.15449-0.12253-0.38758-0.18379-0.69926-0.1838h-0.90303v1.4666h0.90303m1.4305-2.0142c0.33031 0.090069 0.58603 0.25631 0.76719 0.49887 0.18113 0.24256 0.2717 0.54012 0.27171 0.89271-1e-5 0.54013-0.19448 0.94272-0.58339 1.2078-0.38892 0.26506-0.98029 0.39759-1.7741 0.39759h-2.5533v-5.6001h2.3095c0.82844 9.3e-6 1.4278 0.11754 1.7981 0.35259 0.37293 0.23506 0.5594 0.6114 0.5594 1.129 0 0.27258-0.06794 0.50513-0.20377 0.69767-0.13586 0.19005-0.33298 0.33134-0.59138 0.42386m0.90511-2.6031h1.6822l1.3586 1.9955 1.3585-1.9955h1.6862l-2.2736 3.2408v2.3593h-1.5384v-2.3593l-2.2736-3.2408" fill="#fff"/>
</svg>
