<svg width="400" height="400" version="1.1" viewBox="0 0 105.84 105.84" xmlns="http://www.w3.org/2000/svg">
	<path d="m2.0508 0v2.0508h-2.0508v0.13281h2.0508v1.9844h-2.0508v0.13086h2.0508v1.9844h-2.0508v0.13281h2.0508v1.9844h-2.0508v0.13281h2.0508v1.9844h-2.0508v0.13281h2.0508v1.9844h-2.0508v0.13086h2.0508v1.9844h-2.0508v0.13281h2.0508v1.9844h-2.0508v0.13281h2.0508v1.9844h-2.0508v0.13281h2.0508v4.0996h-2.0508v0.13281h2.0508v1.9844h-2.0508v0.13281h2.0508v1.9844h-2.0508v0.13281h2.0508v1.9844h-2.0508v0.13086h2.0508v1.9844h-2.0508v0.13281h2.0508v1.9844h-2.0508v0.13281h2.0508v1.9844h-2.0508v0.13281h2.0508v1.9844h-2.0508v0.13086h2.0508v1.9844h-2.0508v0.13281h2.0508v4.1016h-2.0508v0.13281h2.0508v1.9844h-2.0508v0.13086h2.0508v1.9844h-2.0508v0.13281h2.0508v1.9844h-2.0508v0.13281h2.0508v1.9844h-2.0508v0.13281h2.0508v1.9844h-2.0508v0.13086h2.0508v1.9844h-2.0508v0.13281h2.0508v1.9844h-2.0508v0.13281h2.0508v1.9844h-2.0508v0.13281h2.0508v4.0996h-2.0508v0.13281h2.0508v1.9844h-2.0508v0.13281h2.0508v1.9844h-2.0508v0.13281h2.0508v1.9844h-2.0508v0.13086h2.0508v1.9863h-2.0508v0.13086h2.0508v1.9844h-2.0508v0.13281h2.0508v1.9844h-2.0508v0.13281h2.0508v1.9844h-2.0508v0.13086h2.0508v1.9863h-2.0508v0.13086h2.0508v4.1016h-2.0508v0.13281h2.0508v1.9844h-2.0508v0.13281h2.0508v1.9844h-2.0508v0.13086h2.0508v1.9844h-2.0508v0.13281h2.0508v1.9844h-2.0508v0.13281h2.0508v1.9844h-2.0508v0.13281h2.0508v1.9844h-2.0508v0.13086h2.0508v1.9844h-2.0508v0.13281h2.0508v1.9844h-2.0508v0.13282h2.0508v2.0508h0.13281v-2.0508h1.9844v2.0508h0.13086v-2.0508h1.9844v2.0508h0.13281v-2.0508h1.9844v2.0508h0.13281v-2.0508h1.9844v2.0508h0.13281v-2.0508h1.9844v2.0508h0.13086v-2.0508h1.9844v2.0508h0.13281v-2.0508h1.9844v2.0508h0.13281v-2.0508h1.9844v2.0508h0.13281v-2.0508h4.0996v2.0508h0.13281v-2.0508h1.9844v2.0508h0.13281v-2.0508h1.9844v2.0508h0.13281v-2.0508h1.9844v2.0508h0.13086v-2.0508h1.9844v2.0508h0.13281v-2.0508h1.9844v2.0508h0.13281v-2.0508h1.9844v2.0508h0.13281v-2.0508h1.9844v2.0508h0.13086v-2.0508h1.9844v2.0508h0.13281v-2.0508h4.1016v2.0508h0.13281v-2.0508h1.9844v2.0508h0.13086v-2.0508h1.9844v2.0508h0.13281v-2.0508h1.9844v2.0508h0.13281v-2.0508h1.9844v2.0508h0.13281v-2.0508h1.9844v2.0508h0.13086v-2.0508h1.9844v2.0508h0.13281v-2.0508h1.9844v2.0508h0.13281v-2.0508h1.9844v2.0508h0.13281v-2.0508h4.0996v2.0508h0.13281v-2.0508h1.9844v2.0508h0.13281v-2.0508h1.9844v2.0508h0.13281v-2.0508h1.9844v2.0508h0.13086v-2.0508h1.9863v2.0508h0.13086v-2.0508h1.9844v2.0508h0.13281v-2.0508h1.9844v2.0508h0.13281v-2.0508h1.9844v2.0508h0.13086v-2.0508h1.9863v2.0508h0.13086v-2.0508h4.1016v2.0508h0.13281v-2.0508h1.9844v2.0508h0.13281v-2.0508h1.9844v2.0508h0.13086v-2.0508h1.9844v2.0508h0.13281v-2.0508h1.9844v2.0508h0.13281v-2.0508h1.9844v2.0508h0.13281v-2.0508h1.9844v2.0508h0.13086v-2.0508h1.9844v2.0508h0.13281v-2.0508h1.9844v2.0508h0.13282v-2.0508h2.0508v-0.13282h-2.0508v-1.9844h2.0508v-0.13281h-2.0508v-1.9844h2.0508v-0.13086h-2.0508v-1.9844h2.0508v-0.13281h-2.0508v-1.9844h2.0508v-0.13281h-2.0508v-1.9844h2.0508v-0.13281h-2.0508v-1.9844h2.0508v-0.13086h-2.0508v-1.9844h2.0508v-0.13281h-2.0508v-1.9844h2.0508v-0.13281h-2.0508v-4.1016h2.0508v-0.13086h-2.0508v-1.9863h2.0508v-0.13086h-2.0508v-1.9844h2.0508v-0.13281h-2.0508v-1.9844h2.0508v-0.13281h-2.0508v-1.9844h2.0508v-0.13086h-2.0508v-1.9863h2.0508v-0.13086h-2.0508v-1.9844h2.0508v-0.13281h-2.0508v-1.9844h2.0508v-0.13281h-2.0508v-1.9844h2.0508v-0.13281h-2.0508v-4.0996h2.0508v-0.13281h-2.0508v-1.9844h2.0508v-0.13281h-2.0508v-1.9844h2.0508v-0.13281h-2.0508v-1.9844h2.0508v-0.13086h-2.0508v-1.9844h2.0508v-0.13281h-2.0508v-1.9844h2.0508v-0.13281h-2.0508v-1.9844h2.0508v-0.13281h-2.0508v-1.9844h2.0508v-0.13086h-2.0508v-1.9844h2.0508v-0.13281h-2.0508v-4.1016h2.0508v-0.13281h-2.0508v-1.9844h2.0508v-0.13086h-2.0508v-1.9844h2.0508v-0.13281h-2.0508v-1.9844h2.0508v-0.13281h-2.0508v-1.9844h2.0508v-0.13281h-2.0508v-1.9844h2.0508v-0.13086h-2.0508v-1.9844h2.0508v-0.13281h-2.0508v-1.9844h2.0508v-0.13281h-2.0508v-1.9844h2.0508v-0.13281h-2.0508v-4.0996h2.0508v-0.13281h-2.0508v-1.9844h2.0508v-0.13281h-2.0508v-1.9844h2.0508v-0.13281h-2.0508v-1.9844h2.0508v-0.13086h-2.0508v-1.9844h2.0508v-0.13281h-2.0508v-1.9844h2.0508v-0.13281h-2.0508v-1.9844h2.0508v-0.13281h-2.0508v-1.9844h2.0508v-0.13086h-2.0508v-1.9844h2.0508v-0.13281h-2.0508v-2.0508h-0.13282v2.0508h-1.9844v-2.0508h-0.13281v2.0508h-1.9844v-2.0508h-0.13086v2.0508h-1.9844v-2.0508h-0.13281v2.0508h-1.9844v-2.0508h-0.13281v2.0508h-1.9844v-2.0508h-0.13281v2.0508h-1.9844v-2.0508h-0.13086v2.0508h-1.9844v-2.0508h-0.13281v2.0508h-1.9844v-2.0508h-0.13281v2.0508h-4.1016v-2.0508h-0.13086v2.0508h-1.9863v-2.0508h-0.13086v2.0508h-1.9844v-2.0508h-0.13281v2.0508h-1.9844v-2.0508h-0.13281v2.0508h-1.9844v-2.0508h-0.13086v2.0508h-1.9863v-2.0508h-0.13086v2.0508h-1.9844v-2.0508h-0.13281v2.0508h-1.9844v-2.0508h-0.13281v2.0508h-1.9844v-2.0508h-0.13281v2.0508h-4.0996v-2.0508h-0.13281v2.0508h-1.9844v-2.0508h-0.13281v2.0508h-1.9844v-2.0508h-0.13281v2.0508h-1.9844v-2.0508h-0.13086v2.0508h-1.9844v-2.0508h-0.13281v2.0508h-1.9844v-2.0508h-0.13281v2.0508h-1.9844v-2.0508h-0.13281v2.0508h-1.9844v-2.0508h-0.13086v2.0508h-1.9844v-2.0508h-0.13281v2.0508h-4.1016v-2.0508h-0.13281v2.0508h-1.9844v-2.0508h-0.13086v2.0508h-1.9844v-2.0508h-0.13281v2.0508h-1.9844v-2.0508h-0.13281v2.0508h-1.9844v-2.0508h-0.13281v2.0508h-1.9844v-2.0508h-0.13086v2.0508h-1.9844v-2.0508h-0.13281v2.0508h-1.9844v-2.0508h-0.13281v2.0508h-1.9844v-2.0508h-0.13281v2.0508h-4.0996v-2.0508h-0.13281v2.0508h-1.9844v-2.0508h-0.13281v2.0508h-1.9844v-2.0508h-0.13281v2.0508h-1.9844v-2.0508h-0.13086v2.0508h-1.9844v-2.0508h-0.13281v2.0508h-1.9844v-2.0508h-0.13281v2.0508h-1.9844v-2.0508h-0.13281v2.0508h-1.9844v-2.0508h-0.13086v2.0508h-1.9844v-2.0508zm0.13281 2.1836h1.9844v1.9844h-1.9844zm2.1152 0h1.9844v1.9844h-1.9844zm2.1172 0h1.9844v1.9844h-1.9844zm2.1172 0h1.9844v1.9844h-1.9844zm2.1172 0h1.9844v1.9844h-1.9844zm2.1152 0h1.9844v1.9844h-1.9844zm2.1172 0h1.9844v1.9844h-1.9844zm2.1172 0h1.9844v1.9844h-1.9844zm2.1172 0h4.0996v1.9844h-4.0996zm4.2324 0h1.9844v1.9844h-1.9844zm2.1172 0h1.9844v1.9844h-1.9844zm2.1172 0h1.9844v1.9844h-1.9844zm2.1152 0h1.9844v1.9844h-1.9844zm2.1172 0h1.9844v1.9844h-1.9844zm2.1172 0h1.9844v1.9844h-1.9844zm2.1172 0h1.9844v1.9844h-1.9844zm2.1152 0h1.9844v1.9844h-1.9844zm2.1172 0h4.1016v1.9844h-4.1016zm4.2344 0h1.9844v1.9844h-1.9844zm2.1152 0h1.9844v1.9844h-1.9844zm2.1172 0h1.9844v1.9844h-1.9844zm2.1172 0h1.9844v1.9844h-1.9844zm2.1172 0h1.9844v1.9844h-1.9844zm2.1152 0h1.9844v1.9844h-1.9844zm2.1172 0h1.9844v1.9844h-1.9844zm2.1172 0h1.9844v1.9844h-1.9844zm2.1172 0h4.0996v1.9844h-4.0996zm4.2324 0h1.9844v1.9844h-1.9844zm2.1172 0h1.9844v1.9844h-1.9844zm2.1172 0h1.9844v1.9844h-1.9844zm2.1152 0h1.9863v1.9844h-1.9863zm2.1172 0h1.9844v1.9844h-1.9844zm2.1172 0h1.9844v1.9844h-1.9844zm2.1172 0h1.9844v1.9844h-1.9844zm2.1152 0h1.9863v1.9844h-1.9863zm2.1172 0h4.1016v1.9844h-4.1016zm4.2344 0h1.9844v1.9844h-1.9844zm2.1172 0h1.9844v1.9844h-1.9844zm2.1152 0h1.9844v1.9844h-1.9844zm2.1172 0h1.9844v1.9844h-1.9844zm2.1172 0h1.9844v1.9844h-1.9844zm2.1172 0h1.9844v1.9844h-1.9844zm2.1152 0h1.9844v1.9844h-1.9844zm2.1172 0h1.9844v1.9844h-1.9844zm-99.484 2.1152h1.9844v1.9844h-1.9844zm2.1152 0h1.9844v1.9844h-1.9844zm2.1172 0h1.9844v1.9844h-1.9844zm2.1172 0h1.9844v1.9844h-1.9844zm2.1172 0h1.9844v1.9844h-1.9844zm2.1152 0h1.9844v1.9844h-1.9844zm2.1172 0h1.9844v1.9844h-1.9844zm2.1172 0h1.9844v1.9844h-1.9844zm2.1172 0h4.0996v1.9844h-4.0996zm4.2324 0h1.9844v1.9844h-1.9844zm2.1172 0h1.9844v1.9844h-1.9844zm2.1172 0h1.9844v1.9844h-1.9844zm2.1152 0h1.9844v1.9844h-1.9844zm2.1172 0h1.9844v1.9844h-1.9844zm2.1172 0h1.9844v1.9844h-1.9844zm2.1172 0h1.9844v1.9844h-1.9844zm2.1152 0h1.9844v1.9844h-1.9844zm2.1172 0h4.1016v1.9844h-4.1016zm4.2344 0h1.9844v1.9844h-1.9844zm2.1152 0h1.9844v1.9844h-1.9844zm2.1172 0h1.9844v1.9844h-1.9844zm2.1172 0h1.9844v1.9844h-1.9844zm2.1172 0h1.9844v1.9844h-1.9844zm2.1152 0h1.9844v1.9844h-1.9844zm2.1172 0h1.9844v1.9844h-1.9844zm2.1172 0h1.9844v1.9844h-1.9844zm2.1172 0h4.0996v1.9844h-4.0996zm4.2324 0h1.9844v1.9844h-1.9844zm2.1172 0h1.9844v1.9844h-1.9844zm2.1172 0h1.9844v1.9844h-1.9844zm2.1152 0h1.9863v1.9844h-1.9863zm2.1172 0h1.9844v1.9844h-1.9844zm2.1172 0h1.9844v1.9844h-1.9844zm2.1172 0h1.9844v1.9844h-1.9844zm2.1152 0h1.9863v1.9844h-1.9863zm2.1172 0h4.1016v1.9844h-4.1016zm4.2344 0h1.9844v1.9844h-1.9844zm2.1172 0h1.9844v1.9844h-1.9844zm2.1152 0h1.9844v1.9844h-1.9844zm2.1172 0h1.9844v1.9844h-1.9844zm2.1172 0h1.9844v1.9844h-1.9844zm2.1172 0h1.9844v1.9844h-1.9844zm2.1152 0h1.9844v1.9844h-1.9844zm2.1172 0h1.9844v1.9844h-1.9844zm-99.484 2.1172h1.9844v1.9844h-1.9844zm2.1152 0h1.9844v1.9844h-1.9844zm2.1172 0h1.9844v1.9844h-1.9844zm2.1172 0h1.9844v1.9844h-1.9844zm2.1172 0h1.9844v1.9844h-1.9844zm2.1152 0h1.9844v1.9844h-1.9844zm2.1172 0h1.9844v1.9844h-1.9844zm2.1172 0h1.9844v1.9844h-1.9844zm2.1172 0h4.0996v1.9844h-4.0996zm4.2324 0h1.9844v1.9844h-1.9844zm2.1172 0h1.9844v1.9844h-1.9844zm2.1172 0h1.9844v1.9844h-1.9844zm2.1152 0h1.9844v1.9844h-1.9844zm2.1172 0h1.9844v1.9844h-1.9844zm2.1172 0h1.9844v1.9844h-1.9844zm2.1172 0h1.9844v1.9844h-1.9844zm2.1152 0h1.9844v1.9844h-1.9844zm2.1172 0h4.1016v1.9844h-4.1016zm4.2344 0h1.9844v1.9844h-1.9844zm2.1152 0h1.9844v1.9844h-1.9844zm2.1172 0h1.9844v1.9844h-1.9844zm2.1172 0h1.9844v1.9844h-1.9844zm2.1172 0h1.9844v1.9844h-1.9844zm2.1152 0h1.9844v1.9844h-1.9844zm2.1172 0h1.9844v1.9844h-1.9844zm2.1172 0h1.9844v1.9844h-1.9844zm2.1172 0h4.0996v1.9844h-4.0996zm4.2324 0h1.9844v1.9844h-1.9844zm2.1172 0h1.9844v1.9844h-1.9844zm2.1172 0h1.9844v1.9844h-1.9844zm2.1152 0h1.9863v1.9844h-1.9863zm2.1172 0h1.9844v1.9844h-1.9844zm2.1172 0h1.9844v1.9844h-1.9844zm2.1172 0h1.9844v1.9844h-1.9844zm2.1152 0h1.9863v1.9844h-1.9863zm2.1172 0h4.1016v1.9844h-4.1016zm4.2344 0h1.9844v1.9844h-1.9844zm2.1172 0h1.9844v1.9844h-1.9844zm2.1152 0h1.9844v1.9844h-1.9844zm2.1172 0h1.9844v1.9844h-1.9844zm2.1172 0h1.9844v1.9844h-1.9844zm2.1172 0h1.9844v1.9844h-1.9844zm2.1152 0h1.9844v1.9844h-1.9844zm2.1172 0h1.9844v1.9844h-1.9844zm-99.484 2.1172h1.9844v1.9844h-1.9844zm2.1152 0h1.9844v1.9844h-1.9844zm2.1172 0h1.9844v1.9844h-1.9844zm2.1172 0h1.9844v1.9844h-1.9844zm2.1172 0h1.9844v1.9844h-1.9844zm2.1152 0h1.9844v1.9844h-1.9844zm2.1172 0h1.9844v1.9844h-1.9844zm2.1172 0h1.9844v1.9844h-1.9844zm2.1172 0h4.0996v1.9844h-4.0996zm4.2324 0h1.9844v1.9844h-1.9844zm2.1172 0h1.9844v1.9844h-1.9844zm2.1172 0h1.9844v1.9844h-1.9844zm2.1152 0h1.9844v1.9844h-1.9844zm2.1172 0h1.9844v1.9844h-1.9844zm2.1172 0h1.9844v1.9844h-1.9844zm2.1172 0h1.9844v1.9844h-1.9844zm2.1152 0h1.9844v1.9844h-1.9844zm2.1172 0h4.1016v1.9844h-4.1016zm4.2344 0h1.9844v1.9844h-1.9844zm2.1152 0h1.9844v1.9844h-1.9844zm2.1172 0h1.9844v1.9844h-1.9844zm2.1172 0h1.9844v1.9844h-1.9844zm2.1172 0h1.9844v1.9844h-1.9844zm2.1152 0h1.9844v1.9844h-1.9844zm2.1172 0h1.9844v1.9844h-1.9844zm2.1172 0h1.9844v1.9844h-1.9844zm2.1172 0h4.0996v1.9844h-4.0996zm4.2324 0h1.9844v1.9844h-1.9844zm2.1172 0h1.9844v1.9844h-1.9844zm2.1172 0h1.9844v1.9844h-1.9844zm2.1152 0h1.9863v1.9844h-1.9863zm2.1172 0h1.9844v1.9844h-1.9844zm2.1172 0h1.9844v1.9844h-1.9844zm2.1172 0h1.9844v1.9844h-1.9844zm2.1152 0h1.9863v1.9844h-1.9863zm2.1172 0h4.1016v1.9844h-4.1016zm4.2344 0h1.9844v1.9844h-1.9844zm2.1172 0h1.9844v1.9844h-1.9844zm2.1152 0h1.9844v1.9844h-1.9844zm2.1172 0h1.9844v1.9844h-1.9844zm2.1172 0h1.9844v1.9844h-1.9844zm2.1172 0h1.9844v1.9844h-1.9844zm2.1152 0h1.9844v1.9844h-1.9844zm2.1172 0h1.9844v1.9844h-1.9844zm-99.484 2.1172h1.9844v1.9844h-1.9844zm2.1152 0h1.9844v1.9844h-1.9844zm2.1172 0h1.9844v1.9844h-1.9844zm2.1172 0h1.9844v1.9844h-1.9844zm2.1172 0h1.9844v1.9844h-1.9844zm2.1152 0h1.9844v1.9844h-1.9844zm2.1172 0h1.9844v1.9844h-1.9844zm2.1172 0h1.9844v1.9844h-1.9844zm2.1172 0h4.0996v1.9844h-4.0996zm4.2324 0h1.9844v1.9844h-1.9844zm2.1172 0h1.9844v1.9844h-1.9844zm2.1172 0h1.9844v1.9844h-1.9844zm2.1152 0h1.9844v1.9844h-1.9844zm2.1172 0h1.9844v1.9844h-1.9844zm2.1172 0h1.9844v1.9844h-1.9844zm2.1172 0h1.9844v1.9844h-1.9844zm2.1152 0h1.9844v1.9844h-1.9844zm2.1172 0h4.1016v1.9844h-4.1016zm4.2344 0h1.9844v1.9844h-1.9844zm2.1152 0h1.9844v1.9844h-1.9844zm2.1172 0h1.9844v1.9844h-1.9844zm2.1172 0h1.9844v1.9844h-1.9844zm2.1172 0h1.9844v1.9844h-1.9844zm2.1152 0h1.9844v1.9844h-1.9844zm2.1172 0h1.9844v1.9844h-1.9844zm2.1172 0h1.9844v1.9844h-1.9844zm2.1172 0h4.0996v1.9844h-4.0996zm4.2324 0h1.9844v1.9844h-1.9844zm2.1172 0h1.9844v1.9844h-1.9844zm2.1172 0h1.9844v1.9844h-1.9844zm2.1152 0h1.9863v1.9844h-1.9863zm2.1172 0h1.9844v1.9844h-1.9844zm2.1172 0h1.9844v1.9844h-1.9844zm2.1172 0h1.9844v1.9844h-1.9844zm2.1152 0h1.9863v1.9844h-1.9863zm2.1172 0h4.1016v1.9844h-4.1016zm4.2344 0h1.9844v1.9844h-1.9844zm2.1172 0h1.9844v1.9844h-1.9844zm2.1152 0h1.9844v1.9844h-1.9844zm2.1172 0h1.9844v1.9844h-1.9844zm2.1172 0h1.9844v1.9844h-1.9844zm2.1172 0h1.9844v1.9844h-1.9844zm2.1152 0h1.9844v1.9844h-1.9844zm2.1172 0h1.9844v1.9844h-1.9844zm-99.484 2.1152h1.9844v1.9844h-1.9844zm2.1152 0h1.9844v1.9844h-1.9844zm2.1172 0h1.9844v1.9844h-1.9844zm2.1172 0h1.9844v1.9844h-1.9844zm2.1172 0h1.9844v1.9844h-1.9844zm2.1152 0h1.9844v1.9844h-1.9844zm2.1172 0h1.9844v1.9844h-1.9844zm2.1172 0h1.9844v1.9844h-1.9844zm2.1172 0h4.0996v1.9844h-4.0996zm4.2324 0h1.9844v1.9844h-1.9844zm2.1172 0h1.9844v1.9844h-1.9844zm2.1172 0h1.9844v1.9844h-1.9844zm2.1152 0h1.9844v1.9844h-1.9844zm2.1172 0h1.9844v1.9844h-1.9844zm2.1172 0h1.9844v1.9844h-1.9844zm2.1172 0h1.9844v1.9844h-1.9844zm2.1152 0h1.9844v1.9844h-1.9844zm2.1172 0h4.1016v1.9844h-4.1016zm4.2344 0h1.9844v1.9844h-1.9844zm2.1152 0h1.9844v1.9844h-1.9844zm2.1172 0h1.9844v1.9844h-1.9844zm2.1172 0h1.9844v1.9844h-1.9844zm2.1172 0h1.9844v1.9844h-1.9844zm2.1152 0h1.9844v1.9844h-1.9844zm2.1172 0h1.9844v1.9844h-1.9844zm2.1172 0h1.9844v1.9844h-1.9844zm2.1172 0h4.0996v1.9844h-4.0996zm4.2324 0h1.9844v1.9844h-1.9844zm2.1172 0h1.9844v1.9844h-1.9844zm2.1172 0h1.9844v1.9844h-1.9844zm2.1152 0h1.9863v1.9844h-1.9863zm2.1172 0h1.9844v1.9844h-1.9844zm2.1172 0h1.9844v1.9844h-1.9844zm2.1172 0h1.9844v1.9844h-1.9844zm2.1152 0h1.9863v1.9844h-1.9863zm2.1172 0h4.1016v1.9844h-4.1016zm4.2344 0h1.9844v1.9844h-1.9844zm2.1172 0h1.9844v1.9844h-1.9844zm2.1152 0h1.9844v1.9844h-1.9844zm2.1172 0h1.9844v1.9844h-1.9844zm2.1172 0h1.9844v1.9844h-1.9844zm2.1172 0h1.9844v1.9844h-1.9844zm2.1152 0h1.9844v1.9844h-1.9844zm2.1172 0h1.9844v1.9844h-1.9844zm-99.484 2.1172h1.9844v1.9844h-1.9844zm2.1152 0h1.9844v1.9844h-1.9844zm2.1172 0h1.9844v1.9844h-1.9844zm2.1172 0h1.9844v1.9844h-1.9844zm2.1172 0h1.9844v1.9844h-1.9844zm2.1152 0h1.9844v1.9844h-1.9844zm2.1172 0h1.9844v1.9844h-1.9844zm2.1172 0h1.9844v1.9844h-1.9844zm2.1172 0h4.0996v1.9844h-4.0996zm4.2324 0h1.9844v1.9844h-1.9844zm2.1172 0h1.9844v1.9844h-1.9844zm2.1172 0h1.9844v1.9844h-1.9844zm2.1152 0h1.9844v1.9844h-1.9844zm2.1172 0h1.9844v1.9844h-1.9844zm2.1172 0h1.9844v1.9844h-1.9844zm2.1172 0h1.9844v1.9844h-1.9844zm2.1152 0h1.9844v1.9844h-1.9844zm2.1172 0h4.1016v1.9844h-4.1016zm4.2344 0h1.9844v1.9844h-1.9844zm2.1152 0h1.9844v1.9844h-1.9844zm2.1172 0h1.9844v1.9844h-1.9844zm2.1172 0h1.9844v1.9844h-1.9844zm2.1172 0h1.9844v1.9844h-1.9844zm2.1152 0h1.9844v1.9844h-1.9844zm2.1172 0h1.9844v1.9844h-1.9844zm2.1172 0h1.9844v1.9844h-1.9844zm2.1172 0h4.0996v1.9844h-4.0996zm4.2324 0h1.9844v1.9844h-1.9844zm2.1172 0h1.9844v1.9844h-1.9844zm2.1172 0h1.9844v1.9844h-1.9844zm2.1152 0h1.9863v1.9844h-1.9863zm2.1172 0h1.9844v1.9844h-1.9844zm2.1172 0h1.9844v1.9844h-1.9844zm2.1172 0h1.9844v1.9844h-1.9844zm2.1152 0h1.9863v1.9844h-1.9863zm2.1172 0h4.1016v1.9844h-4.1016zm4.2344 0h1.9844v1.9844h-1.9844zm2.1172 0h1.9844v1.9844h-1.9844zm2.1152 0h1.9844v1.9844h-1.9844zm2.1172 0h1.9844v1.9844h-1.9844zm2.1172 0h1.9844v1.9844h-1.9844zm2.1172 0h1.9844v1.9844h-1.9844zm2.1152 0h1.9844v1.9844h-1.9844zm2.1172 0h1.9844v1.9844h-1.9844zm-99.484 2.1172h1.9844v1.9844h-1.9844zm2.1152 0h1.9844v1.9844h-1.9844zm2.1172 0h1.9844v1.9844h-1.9844zm2.1172 0h1.9844v1.9844h-1.9844zm2.1172 0h1.9844v1.9844h-1.9844zm2.1152 0h1.9844v1.9844h-1.9844zm2.1172 0h1.9844v1.9844h-1.9844zm2.1172 0h1.9844v1.9844h-1.9844zm2.1172 0h4.0996v1.9844h-4.0996zm4.2324 0h1.9844v1.9844h-1.9844zm2.1172 0h1.9844v1.9844h-1.9844zm2.1172 0h1.9844v1.9844h-1.9844zm2.1152 0h1.9844v1.9844h-1.9844zm2.1172 0h1.9844v1.9844h-1.9844zm2.1172 0h1.9844v1.9844h-1.9844zm2.1172 0h1.9844v1.9844h-1.9844zm2.1152 0h1.9844v1.9844h-1.9844zm2.1172 0h4.1016v1.9844h-4.1016zm4.2344 0h1.9844v1.9844h-1.9844zm2.1152 0h1.9844v1.9844h-1.9844zm2.1172 0h1.9844v1.9844h-1.9844zm2.1172 0h1.9844v1.9844h-1.9844zm2.1172 0h1.9844v1.9844h-1.9844zm2.1152 0h1.9844v1.9844h-1.9844zm2.1172 0h1.9844v1.9844h-1.9844zm2.1172 0h1.9844v1.9844h-1.9844zm2.1172 0h4.0996v1.9844h-4.0996zm4.2324 0h1.9844v1.9844h-1.9844zm2.1172 0h1.9844v1.9844h-1.9844zm2.1172 0h1.9844v1.9844h-1.9844zm2.1152 0h1.9863v1.9844h-1.9863zm2.1172 0h1.9844v1.9844h-1.9844zm2.1172 0h1.9844v1.9844h-1.9844zm2.1172 0h1.9844v1.9844h-1.9844zm2.1152 0h1.9863v1.9844h-1.9863zm2.1172 0h4.1016v1.9844h-4.1016zm4.2344 0h1.9844v1.9844h-1.9844zm2.1172 0h1.9844v1.9844h-1.9844zm2.1152 0h1.9844v1.9844h-1.9844zm2.1172 0h1.9844v1.9844h-1.9844zm2.1172 0h1.9844v1.9844h-1.9844zm2.1172 0h1.9844v1.9844h-1.9844zm2.1152 0h1.9844v1.9844h-1.9844zm2.1172 0h1.9844v1.9844h-1.9844zm-99.484 2.1172h1.9844v4.0996h-1.9844zm2.1152 0h1.9844v4.0996h-1.9844zm2.1172 0h1.9844v4.0996h-1.9844zm2.1172 0h1.9844v4.0996h-1.9844zm2.1172 0h1.9844v4.0996h-1.9844zm2.1152 0h1.9844v4.0996h-1.9844zm2.1172 0h1.9844v4.0996h-1.9844zm2.1172 0h1.9844v4.0996h-1.9844zm2.1172 0h4.0996v4.0996h-4.0996zm4.2324 0h1.9844v4.0996h-1.9844zm2.1172 0h1.9844v4.0996h-1.9844zm2.1172 0h1.9844v4.0996h-1.9844zm2.1152 0h1.9844v4.0996h-1.9844zm2.1172 0h1.9844v4.0996h-1.9844zm2.1172 0h1.9844v4.0996h-1.9844zm2.1172 0h1.9844v4.0996h-1.9844zm2.1152 0h1.9844v4.0996h-1.9844zm2.1172 0h4.1016v4.0996h-4.1016zm4.2344 0h1.9844v4.0996h-1.9844zm2.1152 0h1.9844v4.0996h-1.9844zm2.1172 0h1.9844v4.0996h-1.9844zm2.1172 0h1.9844v4.0996h-1.9844zm2.1172 0h1.9844v4.0996h-1.9844zm2.1152 0h1.9844v4.0996h-1.9844zm2.1172 0h1.9844v4.0996h-1.9844zm2.1172 0h1.9844v4.0996h-1.9844zm2.1172 0h4.0996v4.0996h-4.0996zm4.2324 0h1.9844v4.0996h-1.9844zm2.1172 0h1.9844v4.0996h-1.9844zm2.1172 0h1.9844v4.0996h-1.9844zm2.1152 0h1.9863v4.0996h-1.9863zm2.1172 0h1.9844v4.0996h-1.9844zm2.1172 0h1.9844v4.0996h-1.9844zm2.1172 0h1.9844v4.0996h-1.9844zm2.1152 0h1.9863v4.0996h-1.9863zm2.1172 0h4.1016v4.0996h-4.1016zm4.2344 0h1.9844v4.0996h-1.9844zm2.1172 0h1.9844v4.0996h-1.9844zm2.1152 0h1.9844v4.0996h-1.9844zm2.1172 0h1.9844v4.0996h-1.9844zm2.1172 0h1.9844v4.0996h-1.9844zm2.1172 0h1.9844v4.0996h-1.9844zm2.1152 0h1.9844v4.0996h-1.9844zm2.1172 0h1.9844v4.0996h-1.9844zm-99.484 4.2324h1.9844v1.9844h-1.9844zm2.1152 0h1.9844v1.9844h-1.9844zm2.1172 0h1.9844v1.9844h-1.9844zm2.1172 0h1.9844v1.9844h-1.9844zm2.1172 0h1.9844v1.9844h-1.9844zm2.1152 0h1.9844v1.9844h-1.9844zm2.1172 0h1.9844v1.9844h-1.9844zm2.1172 0h1.9844v1.9844h-1.9844zm2.1172 0h4.0996v1.9844h-4.0996zm4.2324 0h1.9844v1.9844h-1.9844zm2.1172 0h1.9844v1.9844h-1.9844zm2.1172 0h1.9844v1.9844h-1.9844zm2.1152 0h1.9844v1.9844h-1.9844zm2.1172 0h1.9844v1.9844h-1.9844zm2.1172 0h1.9844v1.9844h-1.9844zm2.1172 0h1.9844v1.9844h-1.9844zm2.1152 0h1.9844v1.9844h-1.9844zm2.1172 0h4.1016v1.9844h-4.1016zm4.2344 0h1.9844v1.9844h-1.9844zm2.1152 0h1.9844v1.9844h-1.9844zm2.1172 0h1.9844v1.9844h-1.9844zm2.1172 0h1.9844v1.9844h-1.9844zm2.1172 0h1.9844v1.9844h-1.9844zm2.1152 0h1.9844v1.9844h-1.9844zm2.1172 0h1.9844v1.9844h-1.9844zm2.1172 0h1.9844v1.9844h-1.9844zm2.1172 0h4.0996v1.9844h-4.0996zm4.2324 0h1.9844v1.9844h-1.9844zm2.1172 0h1.9844v1.9844h-1.9844zm2.1172 0h1.9844v1.9844h-1.9844zm2.1152 0h1.9863v1.9844h-1.9863zm2.1172 0h1.9844v1.9844h-1.9844zm2.1172 0h1.9844v1.9844h-1.9844zm2.1172 0h1.9844v1.9844h-1.9844zm2.1152 0h1.9863v1.9844h-1.9863zm2.1172 0h4.1016v1.9844h-4.1016zm4.2344 0h1.9844v1.9844h-1.9844zm2.1172 0h1.9844v1.9844h-1.9844zm2.1152 0h1.9844v1.9844h-1.9844zm2.1172 0h1.9844v1.9844h-1.9844zm2.1172 0h1.9844v1.9844h-1.9844zm2.1172 0h1.9844v1.9844h-1.9844zm2.1152 0h1.9844v1.9844h-1.9844zm2.1172 0h1.9844v1.9844h-1.9844zm-99.484 2.1172h1.9844v1.9844h-1.9844zm2.1152 0h1.9844v1.9844h-1.9844zm2.1172 0h1.9844v1.9844h-1.9844zm2.1172 0h1.9844v1.9844h-1.9844zm2.1172 0h1.9844v1.9844h-1.9844zm2.1152 0h1.9844v1.9844h-1.9844zm2.1172 0h1.9844v1.9844h-1.9844zm2.1172 0h1.9844v1.9844h-1.9844zm2.1172 0h4.0996v1.9844h-4.0996zm4.2324 0h1.9844v1.9844h-1.9844zm2.1172 0h1.9844v1.9844h-1.9844zm2.1172 0h1.9844v1.9844h-1.9844zm2.1152 0h1.9844v1.9844h-1.9844zm2.1172 0h1.9844v1.9844h-1.9844zm2.1172 0h1.9844v1.9844h-1.9844zm2.1172 0h1.9844v1.9844h-1.9844zm2.1152 0h1.9844v1.9844h-1.9844zm2.1172 0h4.1016v1.9844h-4.1016zm4.2344 0h1.9844v1.9844h-1.9844zm2.1152 0h1.9844v1.9844h-1.9844zm2.1172 0h1.9844v1.9844h-1.9844zm2.1172 0h1.9844v1.9844h-1.9844zm2.1172 0h1.9844v1.9844h-1.9844zm2.1152 0h1.9844v1.9844h-1.9844zm2.1172 0h1.9844v1.9844h-1.9844zm2.1172 0h1.9844v1.9844h-1.9844zm2.1172 0h4.0996v1.9844h-4.0996zm4.2324 0h1.9844v1.9844h-1.9844zm2.1172 0h1.9844v1.9844h-1.9844zm2.1172 0h1.9844v1.9844h-1.9844zm2.1152 0h1.9863v1.9844h-1.9863zm2.1172 0h1.9844v1.9844h-1.9844zm2.1172 0h1.9844v1.9844h-1.9844zm2.1172 0h1.9844v1.9844h-1.9844zm2.1152 0h1.9863v1.9844h-1.9863zm2.1172 0h4.1016v1.9844h-4.1016zm4.2344 0h1.9844v1.9844h-1.9844zm2.1172 0h1.9844v1.9844h-1.9844zm2.1152 0h1.9844v1.9844h-1.9844zm2.1172 0h1.9844v1.9844h-1.9844zm2.1172 0h1.9844v1.9844h-1.9844zm2.1172 0h1.9844v1.9844h-1.9844zm2.1152 0h1.9844v1.9844h-1.9844zm2.1172 0h1.9844v1.9844h-1.9844zm-99.484 2.1172h1.9844v1.9844h-1.9844zm2.1152 0h1.9844v1.9844h-1.9844zm2.1172 0h1.9844v1.9844h-1.9844zm2.1172 0h1.9844v1.9844h-1.9844zm2.1172 0h1.9844v1.9844h-1.9844zm2.1152 0h1.9844v1.9844h-1.9844zm2.1172 0h1.9844v1.9844h-1.9844zm2.1172 0h1.9844v1.9844h-1.9844zm2.1172 0h4.0996v1.9844h-4.0996zm4.2324 0h1.9844v1.9844h-1.9844zm2.1172 0h1.9844v1.9844h-1.9844zm2.1172 0h1.9844v1.9844h-1.9844zm2.1152 0h1.9844v1.9844h-1.9844zm2.1172 0h1.9844v1.9844h-1.9844zm2.1172 0h1.9844v1.9844h-1.9844zm2.1172 0h1.9844v1.9844h-1.9844zm2.1152 0h1.9844v1.9844h-1.9844zm2.1172 0h4.1016v1.9844h-4.1016zm4.2344 0h1.9844v1.9844h-1.9844zm2.1152 0h1.9844v1.9844h-1.9844zm2.1172 0h1.9844v1.9844h-1.9844zm2.1172 0h1.9844v1.9844h-1.9844zm2.1172 0h1.9844v1.9844h-1.9844zm2.1152 0h1.9844v1.9844h-1.9844zm2.1172 0h1.9844v1.9844h-1.9844zm2.1172 0h1.9844v1.9844h-1.9844zm2.1172 0h4.0996v1.9844h-4.0996zm4.2324 0h1.9844v1.9844h-1.9844zm2.1172 0h1.9844v1.9844h-1.9844zm2.1172 0h1.9844v1.9844h-1.9844zm2.1152 0h1.9863v1.9844h-1.9863zm2.1172 0h1.9844v1.9844h-1.9844zm2.1172 0h1.9844v1.9844h-1.9844zm2.1172 0h1.9844v1.9844h-1.9844zm2.1152 0h1.9863v1.9844h-1.9863zm2.1172 0h4.1016v1.9844h-4.1016zm4.2344 0h1.9844v1.9844h-1.9844zm2.1172 0h1.9844v1.9844h-1.9844zm2.1152 0h1.9844v1.9844h-1.9844zm2.1172 0h1.9844v1.9844h-1.9844zm2.1172 0h1.9844v1.9844h-1.9844zm2.1172 0h1.9844v1.9844h-1.9844zm2.1152 0h1.9844v1.9844h-1.9844zm2.1172 0h1.9844v1.9844h-1.9844zm-99.484 2.1152h1.9844v1.9844h-1.9844zm2.1152 0h1.9844v1.9844h-1.9844zm2.1172 0h1.9844v1.9844h-1.9844zm2.1172 0h1.9844v1.9844h-1.9844zm2.1172 0h1.9844v1.9844h-1.9844zm2.1152 0h1.9844v1.9844h-1.9844zm2.1172 0h1.9844v1.9844h-1.9844zm2.1172 0h1.9844v1.9844h-1.9844zm2.1172 0h4.0996v1.9844h-4.0996zm4.2324 0h1.9844v1.9844h-1.9844zm2.1172 0h1.9844v1.9844h-1.9844zm2.1172 0h1.9844v1.9844h-1.9844zm2.1152 0h1.9844v1.9844h-1.9844zm2.1172 0h1.9844v1.9844h-1.9844zm2.1172 0h1.9844v1.9844h-1.9844zm2.1172 0h1.9844v1.9844h-1.9844zm2.1152 0h1.9844v1.9844h-1.9844zm2.1172 0h4.1016v1.9844h-4.1016zm4.2344 0h1.9844v1.9844h-1.9844zm2.1152 0h1.9844v1.9844h-1.9844zm2.1172 0h1.9844v1.9844h-1.9844zm2.1172 0h1.9844v1.9844h-1.9844zm2.1172 0h1.9844v1.9844h-1.9844zm2.1152 0h1.9844v1.9844h-1.9844zm2.1172 0h1.9844v1.9844h-1.9844zm2.1172 0h1.9844v1.9844h-1.9844zm2.1172 0h4.0996v1.9844h-4.0996zm4.2324 0h1.9844v1.9844h-1.9844zm2.1172 0h1.9844v1.9844h-1.9844zm2.1172 0h1.9844v1.9844h-1.9844zm2.1152 0h1.9863v1.9844h-1.9863zm2.1172 0h1.9844v1.9844h-1.9844zm2.1172 0h1.9844v1.9844h-1.9844zm2.1172 0h1.9844v1.9844h-1.9844zm2.1152 0h1.9863v1.9844h-1.9863zm2.1172 0h4.1016v1.9844h-4.1016zm4.2344 0h1.9844v1.9844h-1.9844zm2.1172 0h1.9844v1.9844h-1.9844zm2.1152 0h1.9844v1.9844h-1.9844zm2.1172 0h1.9844v1.9844h-1.9844zm2.1172 0h1.9844v1.9844h-1.9844zm2.1172 0h1.9844v1.9844h-1.9844zm2.1152 0h1.9844v1.9844h-1.9844zm2.1172 0h1.9844v1.9844h-1.9844zm-99.484 2.1172h1.9844v1.9844h-1.9844zm2.1152 0h1.9844v1.9844h-1.9844zm2.1172 0h1.9844v1.9844h-1.9844zm2.1172 0h1.9844v1.9844h-1.9844zm2.1172 0h1.9844v1.9844h-1.9844zm2.1152 0h1.9844v1.9844h-1.9844zm2.1172 0h1.9844v1.9844h-1.9844zm2.1172 0h1.9844v1.9844h-1.9844zm2.1172 0h4.0996v1.9844h-4.0996zm4.2324 0h1.9844v1.9844h-1.9844zm2.1172 0h1.9844v1.9844h-1.9844zm2.1172 0h1.9844v1.9844h-1.9844zm2.1152 0h1.9844v1.9844h-1.9844zm2.1172 0h1.9844v1.9844h-1.9844zm2.1172 0h1.9844v1.9844h-1.9844zm2.1172 0h1.9844v1.9844h-1.9844zm2.1152 0h1.9844v1.9844h-1.9844zm2.1172 0h4.1016v1.9844h-4.1016zm4.2344 0h1.9844v1.9844h-1.9844zm2.1152 0h1.9844v1.9844h-1.9844zm2.1172 0h1.9844v1.9844h-1.9844zm2.1172 0h1.9844v1.9844h-1.9844zm2.1172 0h1.9844v1.9844h-1.9844zm2.1152 0h1.9844v1.9844h-1.9844zm2.1172 0h1.9844v1.9844h-1.9844zm2.1172 0h1.9844v1.9844h-1.9844zm2.1172 0h4.0996v1.9844h-4.0996zm4.2324 0h1.9844v1.9844h-1.9844zm2.1172 0h1.9844v1.9844h-1.9844zm2.1172 0h1.9844v1.9844h-1.9844zm2.1152 0h1.9863v1.9844h-1.9863zm2.1172 0h1.9844v1.9844h-1.9844zm2.1172 0h1.9844v1.9844h-1.9844zm2.1172 0h1.9844v1.9844h-1.9844zm2.1152 0h1.9863v1.9844h-1.9863zm2.1172 0h4.1016v1.9844h-4.1016zm4.2344 0h1.9844v1.9844h-1.9844zm2.1172 0h1.9844v1.9844h-1.9844zm2.1152 0h1.9844v1.9844h-1.9844zm2.1172 0h1.9844v1.9844h-1.9844zm2.1172 0h1.9844v1.9844h-1.9844zm2.1172 0h1.9844v1.9844h-1.9844zm2.1152 0h1.9844v1.9844h-1.9844zm2.1172 0h1.9844v1.9844h-1.9844zm-99.484 2.1172h1.9844v1.9844h-1.9844zm2.1152 0h1.9844v1.9844h-1.9844zm2.1172 0h1.9844v1.9844h-1.9844zm2.1172 0h1.9844v1.9844h-1.9844zm2.1172 0h1.9844v1.9844h-1.9844zm2.1152 0h1.9844v1.9844h-1.9844zm2.1172 0h1.9844v1.9844h-1.9844zm2.1172 0h1.9844v1.9844h-1.9844zm2.1172 0h4.0996v1.9844h-4.0996zm4.2324 0h1.9844v1.9844h-1.9844zm2.1172 0h1.9844v1.9844h-1.9844zm2.1172 0h1.9844v1.9844h-1.9844zm2.1152 0h1.9844v1.9844h-1.9844zm2.1172 0h1.9844v1.9844h-1.9844zm2.1172 0h1.9844v1.9844h-1.9844zm2.1172 0h1.9844v1.9844h-1.9844zm2.1152 0h1.9844v1.9844h-1.9844zm2.1172 0h4.1016v1.9844h-4.1016zm4.2344 0h1.9844v1.9844h-1.9844zm2.1152 0h1.9844v1.9844h-1.9844zm2.1172 0h1.9844v1.9844h-1.9844zm2.1172 0h1.9844v1.9844h-1.9844zm2.1172 0h1.9844v1.9844h-1.9844zm2.1152 0h1.9844v1.9844h-1.9844zm2.1172 0h1.9844v1.9844h-1.9844zm2.1172 0h1.9844v1.9844h-1.9844zm2.1172 0h4.0996v1.9844h-4.0996zm4.2324 0h1.9844v1.9844h-1.9844zm2.1172 0h1.9844v1.9844h-1.9844zm2.1172 0h1.9844v1.9844h-1.9844zm2.1152 0h1.9863v1.9844h-1.9863zm2.1172 0h1.9844v1.9844h-1.9844zm2.1172 0h1.9844v1.9844h-1.9844zm2.1172 0h1.9844v1.9844h-1.9844zm2.1152 0h1.9863v1.9844h-1.9863zm2.1172 0h4.1016v1.9844h-4.1016zm4.2344 0h1.9844v1.9844h-1.9844zm2.1172 0h1.9844v1.9844h-1.9844zm2.1152 0h1.9844v1.9844h-1.9844zm2.1172 0h1.9844v1.9844h-1.9844zm2.1172 0h1.9844v1.9844h-1.9844zm2.1172 0h1.9844v1.9844h-1.9844zm2.1152 0h1.9844v1.9844h-1.9844zm2.1172 0h1.9844v1.9844h-1.9844zm-99.484 2.1172h1.9844v1.9844h-1.9844zm2.1152 0h1.9844v1.9844h-1.9844zm2.1172 0h1.9844v1.9844h-1.9844zm2.1172 0h1.9844v1.9844h-1.9844zm2.1172 0h1.9844v1.9844h-1.9844zm2.1152 0h1.9844v1.9844h-1.9844zm2.1172 0h1.9844v1.9844h-1.9844zm2.1172 0h1.9844v1.9844h-1.9844zm2.1172 0h4.0996v1.9844h-4.0996zm4.2324 0h1.9844v1.9844h-1.9844zm2.1172 0h1.9844v1.9844h-1.9844zm2.1172 0h1.9844v1.9844h-1.9844zm2.1152 0h1.9844v1.9844h-1.9844zm2.1172 0h1.9844v1.9844h-1.9844zm2.1172 0h1.9844v1.9844h-1.9844zm2.1172 0h1.9844v1.9844h-1.9844zm2.1152 0h1.9844v1.9844h-1.9844zm2.1172 0h4.1016v1.9844h-4.1016zm4.2344 0h1.9844v1.9844h-1.9844zm2.1152 0h1.9844v1.9844h-1.9844zm2.1172 0h1.9844v1.9844h-1.9844zm2.1172 0h1.9844v1.9844h-1.9844zm2.1172 0h1.9844v1.9844h-1.9844zm2.1152 0h1.9844v1.9844h-1.9844zm2.1172 0h1.9844v1.9844h-1.9844zm2.1172 0h1.9844v1.9844h-1.9844zm2.1172 0h4.0996v1.9844h-4.0996zm4.2324 0h1.9844v1.9844h-1.9844zm2.1172 0h1.9844v1.9844h-1.9844zm2.1172 0h1.9844v1.9844h-1.9844zm2.1152 0h1.9863v1.9844h-1.9863zm2.1172 0h1.9844v1.9844h-1.9844zm2.1172 0h1.9844v1.9844h-1.9844zm2.1172 0h1.9844v1.9844h-1.9844zm2.1152 0h1.9863v1.9844h-1.9863zm2.1172 0h4.1016v1.9844h-4.1016zm4.2344 0h1.9844v1.9844h-1.9844zm2.1172 0h1.9844v1.9844h-1.9844zm2.1152 0h1.9844v1.9844h-1.9844zm2.1172 0h1.9844v1.9844h-1.9844zm2.1172 0h1.9844v1.9844h-1.9844zm2.1172 0h1.9844v1.9844h-1.9844zm2.1152 0h1.9844v1.9844h-1.9844zm2.1172 0h1.9844v1.9844h-1.9844zm-99.484 2.1152h1.9844v1.9844h-1.9844zm2.1152 0h1.9844v1.9844h-1.9844zm2.1172 0h1.9844v1.9844h-1.9844zm2.1172 0h1.9844v1.9844h-1.9844zm2.1172 0h1.9844v1.9844h-1.9844zm2.1152 0h1.9844v1.9844h-1.9844zm2.1172 0h1.9844v1.9844h-1.9844zm2.1172 0h1.9844v1.9844h-1.9844zm2.1172 0h4.0996v1.9844h-4.0996zm4.2324 0h1.9844v1.9844h-1.9844zm2.1172 0h1.9844v1.9844h-1.9844zm2.1172 0h1.9844v1.9844h-1.9844zm2.1152 0h1.9844v1.9844h-1.9844zm2.1172 0h1.9844v1.9844h-1.9844zm2.1172 0h1.9844v1.9844h-1.9844zm2.1172 0h1.9844v1.9844h-1.9844zm2.1152 0h1.9844v1.9844h-1.9844zm2.1172 0h4.1016v1.9844h-4.1016zm4.2344 0h1.9844v1.9844h-1.9844zm2.1152 0h1.9844v1.9844h-1.9844zm2.1172 0h1.9844v1.9844h-1.9844zm2.1172 0h1.9844v1.9844h-1.9844zm2.1172 0h1.9844v1.9844h-1.9844zm2.1152 0h1.9844v1.9844h-1.9844zm2.1172 0h1.9844v1.9844h-1.9844zm2.1172 0h1.9844v1.9844h-1.9844zm2.1172 0h4.0996v1.9844h-4.0996zm4.2324 0h1.9844v1.9844h-1.9844zm2.1172 0h1.9844v1.9844h-1.9844zm2.1172 0h1.9844v1.9844h-1.9844zm2.1152 0h1.9863v1.9844h-1.9863zm2.1172 0h1.9844v1.9844h-1.9844zm2.1172 0h1.9844v1.9844h-1.9844zm2.1172 0h1.9844v1.9844h-1.9844zm2.1152 0h1.9863v1.9844h-1.9863zm2.1172 0h4.1016v1.9844h-4.1016zm4.2344 0h1.9844v1.9844h-1.9844zm2.1172 0h1.9844v1.9844h-1.9844zm2.1152 0h1.9844v1.9844h-1.9844zm2.1172 0h1.9844v1.9844h-1.9844zm2.1172 0h1.9844v1.9844h-1.9844zm2.1172 0h1.9844v1.9844h-1.9844zm2.1152 0h1.9844v1.9844h-1.9844zm2.1172 0h1.9844v1.9844h-1.9844zm-99.484 2.1172h1.9844v4.1016h-1.9844zm2.1152 0h1.9844v4.1016h-1.9844zm2.1172 0h1.9844v4.1016h-1.9844zm2.1172 0h1.9844v4.1016h-1.9844zm2.1172 0h1.9844v4.1016h-1.9844zm2.1152 0h1.9844v4.1016h-1.9844zm2.1172 0h1.9844v4.1016h-1.9844zm2.1172 0h1.9844v4.1016h-1.9844zm2.1172 0h4.0996v4.1016h-4.0996zm4.2324 0h1.9844v4.1016h-1.9844zm2.1172 0h1.9844v4.1016h-1.9844zm2.1172 0h1.9844v4.1016h-1.9844zm2.1152 0h1.9844v4.1016h-1.9844zm2.1172 0h1.9844v4.1016h-1.9844zm2.1172 0h1.9844v4.1016h-1.9844zm2.1172 0h1.9844v4.1016h-1.9844zm2.1152 0h1.9844v4.1016h-1.9844zm2.1172 0h4.1016v4.1016h-4.1016zm4.2344 0h1.9844v4.1016h-1.9844zm2.1152 0h1.9844v4.1016h-1.9844zm2.1172 0h1.9844v4.1016h-1.9844zm2.1172 0h1.9844v4.1016h-1.9844zm2.1172 0h1.9844v4.1016h-1.9844zm2.1152 0h1.9844v4.1016h-1.9844zm2.1172 0h1.9844v4.1016h-1.9844zm2.1172 0h1.9844v4.1016h-1.9844zm2.1172 0h4.0996v4.1016h-4.0996zm4.2324 0h1.9844v4.1016h-1.9844zm2.1172 0h1.9844v4.1016h-1.9844zm2.1172 0h1.9844v4.1016h-1.9844zm2.1152 0h1.9863v4.1016h-1.9863zm2.1172 0h1.9844v4.1016h-1.9844zm2.1172 0h1.9844v4.1016h-1.9844zm2.1172 0h1.9844v4.1016h-1.9844zm2.1152 0h1.9863v4.1016h-1.9863zm2.1172 0h4.1016v4.1016h-4.1016zm4.2344 0h1.9844v4.1016h-1.9844zm2.1172 0h1.9844v4.1016h-1.9844zm2.1152 0h1.9844v4.1016h-1.9844zm2.1172 0h1.9844v4.1016h-1.9844zm2.1172 0h1.9844v4.1016h-1.9844zm2.1172 0h1.9844v4.1016h-1.9844zm2.1152 0h1.9844v4.1016h-1.9844zm2.1172 0h1.9844v4.1016h-1.9844zm-99.484 4.2344h1.9844v1.9844h-1.9844zm2.1152 0h1.9844v1.9844h-1.9844zm2.1172 0h1.9844v1.9844h-1.9844zm2.1172 0h1.9844v1.9844h-1.9844zm2.1172 0h1.9844v1.9844h-1.9844zm2.1152 0h1.9844v1.9844h-1.9844zm2.1172 0h1.9844v1.9844h-1.9844zm2.1172 0h1.9844v1.9844h-1.9844zm2.1172 0h4.0996v1.9844h-4.0996zm4.2324 0h1.9844v1.9844h-1.9844zm2.1172 0h1.9844v1.9844h-1.9844zm2.1172 0h1.9844v1.9844h-1.9844zm2.1152 0h1.9844v1.9844h-1.9844zm2.1172 0h1.9844v1.9844h-1.9844zm2.1172 0h1.9844v1.9844h-1.9844zm2.1172 0h1.9844v1.9844h-1.9844zm2.1152 0h1.9844v1.9844h-1.9844zm2.1172 0h4.1016v1.9844h-4.1016zm4.2344 0h1.9844v1.9844h-1.9844zm2.1152 0h1.9844v1.9844h-1.9844zm2.1172 0h1.9844v1.9844h-1.9844zm2.1172 0h1.9844v1.9844h-1.9844zm2.1172 0h1.9844v1.9844h-1.9844zm2.1152 0h1.9844v1.9844h-1.9844zm2.1172 0h1.9844v1.9844h-1.9844zm2.1172 0h1.9844v1.9844h-1.9844zm2.1172 0h4.0996v1.9844h-4.0996zm4.2324 0h1.9844v1.9844h-1.9844zm2.1172 0h1.9844v1.9844h-1.9844zm2.1172 0h1.9844v1.9844h-1.9844zm2.1152 0h1.9863v1.9844h-1.9863zm2.1172 0h1.9844v1.9844h-1.9844zm2.1172 0h1.9844v1.9844h-1.9844zm2.1172 0h1.9844v1.9844h-1.9844zm2.1152 0h1.9863v1.9844h-1.9863zm2.1172 0h4.1016v1.9844h-4.1016zm4.2344 0h1.9844v1.9844h-1.9844zm2.1172 0h1.9844v1.9844h-1.9844zm2.1152 0h1.9844v1.9844h-1.9844zm2.1172 0h1.9844v1.9844h-1.9844zm2.1172 0h1.9844v1.9844h-1.9844zm2.1172 0h1.9844v1.9844h-1.9844zm2.1152 0h1.9844v1.9844h-1.9844zm2.1172 0h1.9844v1.9844h-1.9844zm-99.484 2.1152h1.9844v1.9844h-1.9844zm2.1152 0h1.9844v1.9844h-1.9844zm2.1172 0h1.9844v1.9844h-1.9844zm2.1172 0h1.9844v1.9844h-1.9844zm2.1172 0h1.9844v1.9844h-1.9844zm2.1152 0h1.9844v1.9844h-1.9844zm2.1172 0h1.9844v1.9844h-1.9844zm2.1172 0h1.9844v1.9844h-1.9844zm2.1172 0h4.0996v1.9844h-4.0996zm4.2324 0h1.9844v1.9844h-1.9844zm2.1172 0h1.9844v1.9844h-1.9844zm2.1172 0h1.9844v1.9844h-1.9844zm2.1152 0h1.9844v1.9844h-1.9844zm2.1172 0h1.9844v1.9844h-1.9844zm2.1172 0h1.9844v1.9844h-1.9844zm2.1172 0h1.9844v1.9844h-1.9844zm2.1152 0h1.9844v1.9844h-1.9844zm2.1172 0h4.1016v1.9844h-4.1016zm4.2344 0h1.9844v1.9844h-1.9844zm2.1152 0h1.9844v1.9844h-1.9844zm2.1172 0h1.9844v1.9844h-1.9844zm2.1172 0h1.9844v1.9844h-1.9844zm2.1172 0h1.9844v1.9844h-1.9844zm2.1152 0h1.9844v1.9844h-1.9844zm2.1172 0h1.9844v1.9844h-1.9844zm2.1172 0h1.9844v1.9844h-1.9844zm2.1172 0h4.0996v1.9844h-4.0996zm4.2324 0h1.9844v1.9844h-1.9844zm2.1172 0h1.9844v1.9844h-1.9844zm2.1172 0h1.9844v1.9844h-1.9844zm2.1152 0h1.9863v1.9844h-1.9863zm2.1172 0h1.9844v1.9844h-1.9844zm2.1172 0h1.9844v1.9844h-1.9844zm2.1172 0h1.9844v1.9844h-1.9844zm2.1152 0h1.9863v1.9844h-1.9863zm2.1172 0h4.1016v1.9844h-4.1016zm4.2344 0h1.9844v1.9844h-1.9844zm2.1172 0h1.9844v1.9844h-1.9844zm2.1152 0h1.9844v1.9844h-1.9844zm2.1172 0h1.9844v1.9844h-1.9844zm2.1172 0h1.9844v1.9844h-1.9844zm2.1172 0h1.9844v1.9844h-1.9844zm2.1152 0h1.9844v1.9844h-1.9844zm2.1172 0h1.9844v1.9844h-1.9844zm-99.484 2.1172h1.9844v1.9844h-1.9844zm2.1152 0h1.9844v1.9844h-1.9844zm2.1172 0h1.9844v1.9844h-1.9844zm2.1172 0h1.9844v1.9844h-1.9844zm2.1172 0h1.9844v1.9844h-1.9844zm2.1152 0h1.9844v1.9844h-1.9844zm2.1172 0h1.9844v1.9844h-1.9844zm2.1172 0h1.9844v1.9844h-1.9844zm2.1172 0h4.0996v1.9844h-4.0996zm4.2324 0h1.9844v1.9844h-1.9844zm2.1172 0h1.9844v1.9844h-1.9844zm2.1172 0h1.9844v1.9844h-1.9844zm2.1152 0h1.9844v1.9844h-1.9844zm2.1172 0h1.9844v1.9844h-1.9844zm2.1172 0h1.9844v1.9844h-1.9844zm2.1172 0h1.9844v1.9844h-1.9844zm2.1152 0h1.9844v1.9844h-1.9844zm2.1172 0h4.1016v1.9844h-4.1016zm4.2344 0h1.9844v1.9844h-1.9844zm2.1152 0h1.9844v1.9844h-1.9844zm2.1172 0h1.9844v1.9844h-1.9844zm2.1172 0h1.9844v1.9844h-1.9844zm2.1172 0h1.9844v1.9844h-1.9844zm2.1152 0h1.9844v1.9844h-1.9844zm2.1172 0h1.9844v1.9844h-1.9844zm2.1172 0h1.9844v1.9844h-1.9844zm2.1172 0h4.0996v1.9844h-4.0996zm4.2324 0h1.9844v1.9844h-1.9844zm2.1172 0h1.9844v1.9844h-1.9844zm2.1172 0h1.9844v1.9844h-1.9844zm2.1152 0h1.9863v1.9844h-1.9863zm2.1172 0h1.9844v1.9844h-1.9844zm2.1172 0h1.9844v1.9844h-1.9844zm2.1172 0h1.9844v1.9844h-1.9844zm2.1152 0h1.9863v1.9844h-1.9863zm2.1172 0h4.1016v1.9844h-4.1016zm4.2344 0h1.9844v1.9844h-1.9844zm2.1172 0h1.9844v1.9844h-1.9844zm2.1152 0h1.9844v1.9844h-1.9844zm2.1172 0h1.9844v1.9844h-1.9844zm2.1172 0h1.9844v1.9844h-1.9844zm2.1172 0h1.9844v1.9844h-1.9844zm2.1152 0h1.9844v1.9844h-1.9844zm2.1172 0h1.9844v1.9844h-1.9844zm-99.484 2.1172h1.9844v1.9844h-1.9844zm2.1152 0h1.9844v1.9844h-1.9844zm2.1172 0h1.9844v1.9844h-1.9844zm2.1172 0h1.9844v1.9844h-1.9844zm2.1172 0h1.9844v1.9844h-1.9844zm2.1152 0h1.9844v1.9844h-1.9844zm2.1172 0h1.9844v1.9844h-1.9844zm2.1172 0h1.9844v1.9844h-1.9844zm2.1172 0h4.0996v1.9844h-4.0996zm4.2324 0h1.9844v1.9844h-1.9844zm2.1172 0h1.9844v1.9844h-1.9844zm2.1172 0h1.9844v1.9844h-1.9844zm2.1152 0h1.9844v1.9844h-1.9844zm2.1172 0h1.9844v1.9844h-1.9844zm2.1172 0h1.9844v1.9844h-1.9844zm2.1172 0h1.9844v1.9844h-1.9844zm2.1152 0h1.9844v1.9844h-1.9844zm2.1172 0h4.1016v1.9844h-4.1016zm4.2344 0h1.9844v1.9844h-1.9844zm2.1152 0h1.9844v1.9844h-1.9844zm2.1172 0h1.9844v1.9844h-1.9844zm2.1172 0h1.9844v1.9844h-1.9844zm2.1172 0h1.9844v1.9844h-1.9844zm2.1152 0h1.9844v1.9844h-1.9844zm2.1172 0h1.9844v1.9844h-1.9844zm2.1172 0h1.9844v1.9844h-1.9844zm2.1172 0h4.0996v1.9844h-4.0996zm4.2324 0h1.9844v1.9844h-1.9844zm2.1172 0h1.9844v1.9844h-1.9844zm2.1172 0h1.9844v1.9844h-1.9844zm2.1152 0h1.9863v1.9844h-1.9863zm2.1172 0h1.9844v1.9844h-1.9844zm2.1172 0h1.9844v1.9844h-1.9844zm2.1172 0h1.9844v1.9844h-1.9844zm2.1152 0h1.9863v1.9844h-1.9863zm2.1172 0h4.1016v1.9844h-4.1016zm4.2344 0h1.9844v1.9844h-1.9844zm2.1172 0h1.9844v1.9844h-1.9844zm2.1152 0h1.9844v1.9844h-1.9844zm2.1172 0h1.9844v1.9844h-1.9844zm2.1172 0h1.9844v1.9844h-1.9844zm2.1172 0h1.9844v1.9844h-1.9844zm2.1152 0h1.9844v1.9844h-1.9844zm2.1172 0h1.9844v1.9844h-1.9844zm-99.484 2.1172h1.9844v1.9844h-1.9844zm2.1152 0h1.9844v1.9844h-1.9844zm2.1172 0h1.9844v1.9844h-1.9844zm2.1172 0h1.9844v1.9844h-1.9844zm2.1172 0h1.9844v1.9844h-1.9844zm2.1152 0h1.9844v1.9844h-1.9844zm2.1172 0h1.9844v1.9844h-1.9844zm2.1172 0h1.9844v1.9844h-1.9844zm2.1172 0h4.0996v1.9844h-4.0996zm4.2324 0h1.9844v1.9844h-1.9844zm2.1172 0h1.9844v1.9844h-1.9844zm2.1172 0h1.9844v1.9844h-1.9844zm2.1152 0h1.9844v1.9844h-1.9844zm2.1172 0h1.9844v1.9844h-1.9844zm2.1172 0h1.9844v1.9844h-1.9844zm2.1172 0h1.9844v1.9844h-1.9844zm2.1152 0h1.9844v1.9844h-1.9844zm2.1172 0h4.1016v1.9844h-4.1016zm4.2344 0h1.9844v1.9844h-1.9844zm2.1152 0h1.9844v1.9844h-1.9844zm2.1172 0h1.9844v1.9844h-1.9844zm2.1172 0h1.9844v1.9844h-1.9844zm2.1172 0h1.9844v1.9844h-1.9844zm2.1152 0h1.9844v1.9844h-1.9844zm2.1172 0h1.9844v1.9844h-1.9844zm2.1172 0h1.9844v1.9844h-1.9844zm2.1172 0h4.0996v1.9844h-4.0996zm4.2324 0h1.9844v1.9844h-1.9844zm2.1172 0h1.9844v1.9844h-1.9844zm2.1172 0h1.9844v1.9844h-1.9844zm2.1152 0h1.9863v1.9844h-1.9863zm2.1172 0h1.9844v1.9844h-1.9844zm2.1172 0h1.9844v1.9844h-1.9844zm2.1172 0h1.9844v1.9844h-1.9844zm2.1152 0h1.9863v1.9844h-1.9863zm2.1172 0h4.1016v1.9844h-4.1016zm4.2344 0h1.9844v1.9844h-1.9844zm2.1172 0h1.9844v1.9844h-1.9844zm2.1152 0h1.9844v1.9844h-1.9844zm2.1172 0h1.9844v1.9844h-1.9844zm2.1172 0h1.9844v1.9844h-1.9844zm2.1172 0h1.9844v1.9844h-1.9844zm2.1152 0h1.9844v1.9844h-1.9844zm2.1172 0h1.9844v1.9844h-1.9844zm-99.484 2.1152h1.9844v1.9844h-1.9844zm2.1152 0h1.9844v1.9844h-1.9844zm2.1172 0h1.9844v1.9844h-1.9844zm2.1172 0h1.9844v1.9844h-1.9844zm2.1172 0h1.9844v1.9844h-1.9844zm2.1152 0h1.9844v1.9844h-1.9844zm2.1172 0h1.9844v1.9844h-1.9844zm2.1172 0h1.9844v1.9844h-1.9844zm2.1172 0h4.0996v1.9844h-4.0996zm4.2324 0h1.9844v1.9844h-1.9844zm2.1172 0h1.9844v1.9844h-1.9844zm2.1172 0h1.9844v1.9844h-1.9844zm2.1152 0h1.9844v1.9844h-1.9844zm2.1172 0h1.9844v1.9844h-1.9844zm2.1172 0h1.9844v1.9844h-1.9844zm2.1172 0h1.9844v1.9844h-1.9844zm2.1152 0h1.9844v1.9844h-1.9844zm2.1172 0h4.1016v1.9844h-4.1016zm4.2344 0h1.9844v1.9844h-1.9844zm2.1152 0h1.9844v1.9844h-1.9844zm2.1172 0h1.9844v1.9844h-1.9844zm2.1172 0h1.9844v1.9844h-1.9844zm2.1172 0h1.9844v1.9844h-1.9844zm2.1152 0h1.9844v1.9844h-1.9844zm2.1172 0h1.9844v1.9844h-1.9844zm2.1172 0h1.9844v1.9844h-1.9844zm2.1172 0h4.0996v1.9844h-4.0996zm4.2324 0h1.9844v1.9844h-1.9844zm2.1172 0h1.9844v1.9844h-1.9844zm2.1172 0h1.9844v1.9844h-1.9844zm2.1152 0h1.9863v1.9844h-1.9863zm2.1172 0h1.9844v1.9844h-1.9844zm2.1172 0h1.9844v1.9844h-1.9844zm2.1172 0h1.9844v1.9844h-1.9844zm2.1152 0h1.9863v1.9844h-1.9863zm2.1172 0h4.1016v1.9844h-4.1016zm4.2344 0h1.9844v1.9844h-1.9844zm2.1172 0h1.9844v1.9844h-1.9844zm2.1152 0h1.9844v1.9844h-1.9844zm2.1172 0h1.9844v1.9844h-1.9844zm2.1172 0h1.9844v1.9844h-1.9844zm2.1172 0h1.9844v1.9844h-1.9844zm2.1152 0h1.9844v1.9844h-1.9844zm2.1172 0h1.9844v1.9844h-1.9844zm-99.484 2.1172h1.9844v1.9844h-1.9844zm2.1152 0h1.9844v1.9844h-1.9844zm2.1172 0h1.9844v1.9844h-1.9844zm2.1172 0h1.9844v1.9844h-1.9844zm2.1172 0h1.9844v1.9844h-1.9844zm2.1152 0h1.9844v1.9844h-1.9844zm2.1172 0h1.9844v1.9844h-1.9844zm2.1172 0h1.9844v1.9844h-1.9844zm2.1172 0h4.0996v1.9844h-4.0996zm4.2324 0h1.9844v1.9844h-1.9844zm2.1172 0h1.9844v1.9844h-1.9844zm2.1172 0h1.9844v1.9844h-1.9844zm2.1152 0h1.9844v1.9844h-1.9844zm2.1172 0h1.9844v1.9844h-1.9844zm2.1172 0h1.9844v1.9844h-1.9844zm2.1172 0h1.9844v1.9844h-1.9844zm2.1152 0h1.9844v1.9844h-1.9844zm2.1172 0h4.1016v1.9844h-4.1016zm4.2344 0h1.9844v1.9844h-1.9844zm2.1152 0h1.9844v1.9844h-1.9844zm2.1172 0h1.9844v1.9844h-1.9844zm2.1172 0h1.9844v1.9844h-1.9844zm2.1172 0h1.9844v1.9844h-1.9844zm2.1152 0h1.9844v1.9844h-1.9844zm2.1172 0h1.9844v1.9844h-1.9844zm2.1172 0h1.9844v1.9844h-1.9844zm2.1172 0h4.0996v1.9844h-4.0996zm4.2324 0h1.9844v1.9844h-1.9844zm2.1172 0h1.9844v1.9844h-1.9844zm2.1172 0h1.9844v1.9844h-1.9844zm2.1152 0h1.9863v1.9844h-1.9863zm2.1172 0h1.9844v1.9844h-1.9844zm2.1172 0h1.9844v1.9844h-1.9844zm2.1172 0h1.9844v1.9844h-1.9844zm2.1152 0h1.9863v1.9844h-1.9863zm2.1172 0h4.1016v1.9844h-4.1016zm4.2344 0h1.9844v1.9844h-1.9844zm2.1172 0h1.9844v1.9844h-1.9844zm2.1152 0h1.9844v1.9844h-1.9844zm2.1172 0h1.9844v1.9844h-1.9844zm2.1172 0h1.9844v1.9844h-1.9844zm2.1172 0h1.9844v1.9844h-1.9844zm2.1152 0h1.9844v1.9844h-1.9844zm2.1172 0h1.9844v1.9844h-1.9844zm-99.484 2.1172h1.9844v1.9844h-1.9844zm2.1152 0h1.9844v1.9844h-1.9844zm2.1172 0h1.9844v1.9844h-1.9844zm2.1172 0h1.9844v1.9844h-1.9844zm2.1172 0h1.9844v1.9844h-1.9844zm2.1152 0h1.9844v1.9844h-1.9844zm2.1172 0h1.9844v1.9844h-1.9844zm2.1172 0h1.9844v1.9844h-1.9844zm2.1172 0h4.0996v1.9844h-4.0996zm4.2324 0h1.9844v1.9844h-1.9844zm2.1172 0h1.9844v1.9844h-1.9844zm2.1172 0h1.9844v1.9844h-1.9844zm2.1152 0h1.9844v1.9844h-1.9844zm2.1172 0h1.9844v1.9844h-1.9844zm2.1172 0h1.9844v1.9844h-1.9844zm2.1172 0h1.9844v1.9844h-1.9844zm2.1152 0h1.9844v1.9844h-1.9844zm2.1172 0h4.1016v1.9844h-4.1016zm4.2344 0h1.9844v1.9844h-1.9844zm2.1152 0h1.9844v1.9844h-1.9844zm2.1172 0h1.9844v1.9844h-1.9844zm2.1172 0h1.9844v1.9844h-1.9844zm2.1172 0h1.9844v1.9844h-1.9844zm2.1152 0h1.9844v1.9844h-1.9844zm2.1172 0h1.9844v1.9844h-1.9844zm2.1172 0h1.9844v1.9844h-1.9844zm2.1172 0h4.0996v1.9844h-4.0996zm4.2324 0h1.9844v1.9844h-1.9844zm2.1172 0h1.9844v1.9844h-1.9844zm2.1172 0h1.9844v1.9844h-1.9844zm2.1152 0h1.9863v1.9844h-1.9863zm2.1172 0h1.9844v1.9844h-1.9844zm2.1172 0h1.9844v1.9844h-1.9844zm2.1172 0h1.9844v1.9844h-1.9844zm2.1152 0h1.9863v1.9844h-1.9863zm2.1172 0h4.1016v1.9844h-4.1016zm4.2344 0h1.9844v1.9844h-1.9844zm2.1172 0h1.9844v1.9844h-1.9844zm2.1152 0h1.9844v1.9844h-1.9844zm2.1172 0h1.9844v1.9844h-1.9844zm2.1172 0h1.9844v1.9844h-1.9844zm2.1172 0h1.9844v1.9844h-1.9844zm2.1152 0h1.9844v1.9844h-1.9844zm2.1172 0h1.9844v1.9844h-1.9844zm-99.484 2.1172h1.9844v4.0996h-1.9844zm2.1152 0h1.9844v4.0996h-1.9844zm2.1172 0h1.9844v4.0996h-1.9844zm2.1172 0h1.9844v4.0996h-1.9844zm2.1172 0h1.9844v4.0996h-1.9844zm2.1152 0h1.9844v4.0996h-1.9844zm2.1172 0h1.9844v4.0996h-1.9844zm2.1172 0h1.9844v4.0996h-1.9844zm2.1172 0h4.0996v4.0996h-4.0996zm4.2324 0h1.9844v4.0996h-1.9844zm2.1172 0h1.9844v4.0996h-1.9844zm2.1172 0h1.9844v4.0996h-1.9844zm2.1152 0h1.9844v4.0996h-1.9844zm2.1172 0h1.9844v4.0996h-1.9844zm2.1172 0h1.9844v4.0996h-1.9844zm2.1172 0h1.9844v4.0996h-1.9844zm2.1152 0h1.9844v4.0996h-1.9844zm2.1172 0h4.1016v4.0996h-4.1016zm4.2344 0h1.9844v4.0996h-1.9844zm2.1152 0h1.9844v4.0996h-1.9844zm2.1172 0h1.9844v4.0996h-1.9844zm2.1172 0h1.9844v4.0996h-1.9844zm2.1172 0h1.9844v4.0996h-1.9844zm2.1152 0h1.9844v4.0996h-1.9844zm2.1172 0h1.9844v4.0996h-1.9844zm2.1172 0h1.9844v4.0996h-1.9844zm2.1172 0h4.0996v4.0996h-4.0996zm4.2324 0h1.9844v4.0996h-1.9844zm2.1172 0h1.9844v4.0996h-1.9844zm2.1172 0h1.9844v4.0996h-1.9844zm2.1152 0h1.9863v4.0996h-1.9863zm2.1172 0h1.9844v4.0996h-1.9844zm2.1172 0h1.9844v4.0996h-1.9844zm2.1172 0h1.9844v4.0996h-1.9844zm2.1152 0h1.9863v4.0996h-1.9863zm2.1172 0h4.1016v4.0996h-4.1016zm4.2344 0h1.9844v4.0996h-1.9844zm2.1172 0h1.9844v4.0996h-1.9844zm2.1152 0h1.9844v4.0996h-1.9844zm2.1172 0h1.9844v4.0996h-1.9844zm2.1172 0h1.9844v4.0996h-1.9844zm2.1172 0h1.9844v4.0996h-1.9844zm2.1152 0h1.9844v4.0996h-1.9844zm2.1172 0h1.9844v4.0996h-1.9844zm-99.484 4.2324h1.9844v1.9844h-1.9844zm2.1152 0h1.9844v1.9844h-1.9844zm2.1172 0h1.9844v1.9844h-1.9844zm2.1172 0h1.9844v1.9844h-1.9844zm2.1172 0h1.9844v1.9844h-1.9844zm2.1152 0h1.9844v1.9844h-1.9844zm2.1172 0h1.9844v1.9844h-1.9844zm2.1172 0h1.9844v1.9844h-1.9844zm2.1172 0h4.0996v1.9844h-4.0996zm4.2324 0h1.9844v1.9844h-1.9844zm2.1172 0h1.9844v1.9844h-1.9844zm2.1172 0h1.9844v1.9844h-1.9844zm2.1152 0h1.9844v1.9844h-1.9844zm2.1172 0h1.9844v1.9844h-1.9844zm2.1172 0h1.9844v1.9844h-1.9844zm2.1172 0h1.9844v1.9844h-1.9844zm2.1152 0h1.9844v1.9844h-1.9844zm2.1172 0h4.1016v1.9844h-4.1016zm4.2344 0h1.9844v1.9844h-1.9844zm2.1152 0h1.9844v1.9844h-1.9844zm2.1172 0h1.9844v1.9844h-1.9844zm2.1172 0h1.9844v1.9844h-1.9844zm2.1172 0h1.9844v1.9844h-1.9844zm2.1152 0h1.9844v1.9844h-1.9844zm2.1172 0h1.9844v1.9844h-1.9844zm2.1172 0h1.9844v1.9844h-1.9844zm2.1172 0h4.0996v1.9844h-4.0996zm4.2324 0h1.9844v1.9844h-1.9844zm2.1172 0h1.9844v1.9844h-1.9844zm2.1172 0h1.9844v1.9844h-1.9844zm2.1152 0h1.9863v1.9844h-1.9863zm2.1172 0h1.9844v1.9844h-1.9844zm2.1172 0h1.9844v1.9844h-1.9844zm2.1172 0h1.9844v1.9844h-1.9844zm2.1152 0h1.9863v1.9844h-1.9863zm2.1172 0h4.1016v1.9844h-4.1016zm4.2344 0h1.9844v1.9844h-1.9844zm2.1172 0h1.9844v1.9844h-1.9844zm2.1152 0h1.9844v1.9844h-1.9844zm2.1172 0h1.9844v1.9844h-1.9844zm2.1172 0h1.9844v1.9844h-1.9844zm2.1172 0h1.9844v1.9844h-1.9844zm2.1152 0h1.9844v1.9844h-1.9844zm2.1172 0h1.9844v1.9844h-1.9844zm-99.484 2.1172h1.9844v1.9844h-1.9844zm2.1152 0h1.9844v1.9844h-1.9844zm2.1172 0h1.9844v1.9844h-1.9844zm2.1172 0h1.9844v1.9844h-1.9844zm2.1172 0h1.9844v1.9844h-1.9844zm2.1152 0h1.9844v1.9844h-1.9844zm2.1172 0h1.9844v1.9844h-1.9844zm2.1172 0h1.9844v1.9844h-1.9844zm2.1172 0h4.0996v1.9844h-4.0996zm4.2324 0h1.9844v1.9844h-1.9844zm2.1172 0h1.9844v1.9844h-1.9844zm2.1172 0h1.9844v1.9844h-1.9844zm2.1152 0h1.9844v1.9844h-1.9844zm2.1172 0h1.9844v1.9844h-1.9844zm2.1172 0h1.9844v1.9844h-1.9844zm2.1172 0h1.9844v1.9844h-1.9844zm2.1152 0h1.9844v1.9844h-1.9844zm2.1172 0h4.1016v1.9844h-4.1016zm4.2344 0h1.9844v1.9844h-1.9844zm2.1152 0h1.9844v1.9844h-1.9844zm2.1172 0h1.9844v1.9844h-1.9844zm2.1172 0h1.9844v1.9844h-1.9844zm2.1172 0h1.9844v1.9844h-1.9844zm2.1152 0h1.9844v1.9844h-1.9844zm2.1172 0h1.9844v1.9844h-1.9844zm2.1172 0h1.9844v1.9844h-1.9844zm2.1172 0h4.0996v1.9844h-4.0996zm4.2324 0h1.9844v1.9844h-1.9844zm2.1172 0h1.9844v1.9844h-1.9844zm2.1172 0h1.9844v1.9844h-1.9844zm2.1152 0h1.9863v1.9844h-1.9863zm2.1172 0h1.9844v1.9844h-1.9844zm2.1172 0h1.9844v1.9844h-1.9844zm2.1172 0h1.9844v1.9844h-1.9844zm2.1152 0h1.9863v1.9844h-1.9863zm2.1172 0h4.1016v1.9844h-4.1016zm4.2344 0h1.9844v1.9844h-1.9844zm2.1172 0h1.9844v1.9844h-1.9844zm2.1152 0h1.9844v1.9844h-1.9844zm2.1172 0h1.9844v1.9844h-1.9844zm2.1172 0h1.9844v1.9844h-1.9844zm2.1172 0h1.9844v1.9844h-1.9844zm2.1152 0h1.9844v1.9844h-1.9844zm2.1172 0h1.9844v1.9844h-1.9844zm-99.484 2.1172h1.9844v1.9844h-1.9844zm2.1152 0h1.9844v1.9844h-1.9844zm2.1172 0h1.9844v1.9844h-1.9844zm2.1172 0h1.9844v1.9844h-1.9844zm2.1172 0h1.9844v1.9844h-1.9844zm2.1152 0h1.9844v1.9844h-1.9844zm2.1172 0h1.9844v1.9844h-1.9844zm2.1172 0h1.9844v1.9844h-1.9844zm2.1172 0h4.0996v1.9844h-4.0996zm4.2324 0h1.9844v1.9844h-1.9844zm2.1172 0h1.9844v1.9844h-1.9844zm2.1172 0h1.9844v1.9844h-1.9844zm2.1152 0h1.9844v1.9844h-1.9844zm2.1172 0h1.9844v1.9844h-1.9844zm2.1172 0h1.9844v1.9844h-1.9844zm2.1172 0h1.9844v1.9844h-1.9844zm2.1152 0h1.9844v1.9844h-1.9844zm2.1172 0h4.1016v1.9844h-4.1016zm4.2344 0h1.9844v1.9844h-1.9844zm2.1152 0h1.9844v1.9844h-1.9844zm2.1172 0h1.9844v1.9844h-1.9844zm2.1172 0h1.9844v1.9844h-1.9844zm2.1172 0h1.9844v1.9844h-1.9844zm2.1152 0h1.9844v1.9844h-1.9844zm2.1172 0h1.9844v1.9844h-1.9844zm2.1172 0h1.9844v1.9844h-1.9844zm2.1172 0h4.0996v1.9844h-4.0996zm4.2324 0h1.9844v1.9844h-1.9844zm2.1172 0h1.9844v1.9844h-1.9844zm2.1172 0h1.9844v1.9844h-1.9844zm2.1152 0h1.9863v1.9844h-1.9863zm2.1172 0h1.9844v1.9844h-1.9844zm2.1172 0h1.9844v1.9844h-1.9844zm2.1172 0h1.9844v1.9844h-1.9844zm2.1152 0h1.9863v1.9844h-1.9863zm2.1172 0h4.1016v1.9844h-4.1016zm4.2344 0h1.9844v1.9844h-1.9844zm2.1172 0h1.9844v1.9844h-1.9844zm2.1152 0h1.9844v1.9844h-1.9844zm2.1172 0h1.9844v1.9844h-1.9844zm2.1172 0h1.9844v1.9844h-1.9844zm2.1172 0h1.9844v1.9844h-1.9844zm2.1152 0h1.9844v1.9844h-1.9844zm2.1172 0h1.9844v1.9844h-1.9844zm-99.484 2.1152h1.9844v1.9863h-1.9844zm2.1152 0h1.9844v1.9863h-1.9844zm2.1172 0h1.9844v1.9863h-1.9844zm2.1172 0h1.9844v1.9863h-1.9844zm2.1172 0h1.9844v1.9863h-1.9844zm2.1152 0h1.9844v1.9863h-1.9844zm2.1172 0h1.9844v1.9863h-1.9844zm2.1172 0h1.9844v1.9863h-1.9844zm2.1172 0h4.0996v1.9863h-4.0996zm4.2324 0h1.9844v1.9863h-1.9844zm2.1172 0h1.9844v1.9863h-1.9844zm2.1172 0h1.9844v1.9863h-1.9844zm2.1152 0h1.9844v1.9863h-1.9844zm2.1172 0h1.9844v1.9863h-1.9844zm2.1172 0h1.9844v1.9863h-1.9844zm2.1172 0h1.9844v1.9863h-1.9844zm2.1152 0h1.9844v1.9863h-1.9844zm2.1172 0h4.1016v1.9863h-4.1016zm4.2344 0h1.9844v1.9863h-1.9844zm2.1152 0h1.9844v1.9863h-1.9844zm2.1172 0h1.9844v1.9863h-1.9844zm2.1172 0h1.9844v1.9863h-1.9844zm2.1172 0h1.9844v1.9863h-1.9844zm2.1152 0h1.9844v1.9863h-1.9844zm2.1172 0h1.9844v1.9863h-1.9844zm2.1172 0h1.9844v1.9863h-1.9844zm2.1172 0h4.0996v1.9863h-4.0996zm4.2324 0h1.9844v1.9863h-1.9844zm2.1172 0h1.9844v1.9863h-1.9844zm2.1172 0h1.9844v1.9863h-1.9844zm2.1152 0h1.9863v1.9863h-1.9863zm2.1172 0h1.9844v1.9863h-1.9844zm2.1172 0h1.9844v1.9863h-1.9844zm2.1172 0h1.9844v1.9863h-1.9844zm2.1152 0h1.9863v1.9863h-1.9863zm2.1172 0h4.1016v1.9863h-4.1016zm4.2344 0h1.9844v1.9863h-1.9844zm2.1172 0h1.9844v1.9863h-1.9844zm2.1152 0h1.9844v1.9863h-1.9844zm2.1172 0h1.9844v1.9863h-1.9844zm2.1172 0h1.9844v1.9863h-1.9844zm2.1172 0h1.9844v1.9863h-1.9844zm2.1152 0h1.9844v1.9863h-1.9844zm2.1172 0h1.9844v1.9863h-1.9844zm-99.484 2.1172h1.9844v1.9844h-1.9844zm2.1152 0h1.9844v1.9844h-1.9844zm2.1172 0h1.9844v1.9844h-1.9844zm2.1172 0h1.9844v1.9844h-1.9844zm2.1172 0h1.9844v1.9844h-1.9844zm2.1152 0h1.9844v1.9844h-1.9844zm2.1172 0h1.9844v1.9844h-1.9844zm2.1172 0h1.9844v1.9844h-1.9844zm2.1172 0h4.0996v1.9844h-4.0996zm4.2324 0h1.9844v1.9844h-1.9844zm2.1172 0h1.9844v1.9844h-1.9844zm2.1172 0h1.9844v1.9844h-1.9844zm2.1152 0h1.9844v1.9844h-1.9844zm2.1172 0h1.9844v1.9844h-1.9844zm2.1172 0h1.9844v1.9844h-1.9844zm2.1172 0h1.9844v1.9844h-1.9844zm2.1152 0h1.9844v1.9844h-1.9844zm2.1172 0h4.1016v1.9844h-4.1016zm4.2344 0h1.9844v1.9844h-1.9844zm2.1152 0h1.9844v1.9844h-1.9844zm2.1172 0h1.9844v1.9844h-1.9844zm2.1172 0h1.9844v1.9844h-1.9844zm2.1172 0h1.9844v1.9844h-1.9844zm2.1152 0h1.9844v1.9844h-1.9844zm2.1172 0h1.9844v1.9844h-1.9844zm2.1172 0h1.9844v1.9844h-1.9844zm2.1172 0h4.0996v1.9844h-4.0996zm4.2324 0h1.9844v1.9844h-1.9844zm2.1172 0h1.9844v1.9844h-1.9844zm2.1172 0h1.9844v1.9844h-1.9844zm2.1152 0h1.9863v1.9844h-1.9863zm2.1172 0h1.9844v1.9844h-1.9844zm2.1172 0h1.9844v1.9844h-1.9844zm2.1172 0h1.9844v1.9844h-1.9844zm2.1152 0h1.9863v1.9844h-1.9863zm2.1172 0h4.1016v1.9844h-4.1016zm4.2344 0h1.9844v1.9844h-1.9844zm2.1172 0h1.9844v1.9844h-1.9844zm2.1152 0h1.9844v1.9844h-1.9844zm2.1172 0h1.9844v1.9844h-1.9844zm2.1172 0h1.9844v1.9844h-1.9844zm2.1172 0h1.9844v1.9844h-1.9844zm2.1152 0h1.9844v1.9844h-1.9844zm2.1172 0h1.9844v1.9844h-1.9844zm-99.484 2.1172h1.9844v1.9844h-1.9844zm2.1152 0h1.9844v1.9844h-1.9844zm2.1172 0h1.9844v1.9844h-1.9844zm2.1172 0h1.9844v1.9844h-1.9844zm2.1172 0h1.9844v1.9844h-1.9844zm2.1152 0h1.9844v1.9844h-1.9844zm2.1172 0h1.9844v1.9844h-1.9844zm2.1172 0h1.9844v1.9844h-1.9844zm2.1172 0h4.0996v1.9844h-4.0996zm4.2324 0h1.9844v1.9844h-1.9844zm2.1172 0h1.9844v1.9844h-1.9844zm2.1172 0h1.9844v1.9844h-1.9844zm2.1152 0h1.9844v1.9844h-1.9844zm2.1172 0h1.9844v1.9844h-1.9844zm2.1172 0h1.9844v1.9844h-1.9844zm2.1172 0h1.9844v1.9844h-1.9844zm2.1152 0h1.9844v1.9844h-1.9844zm2.1172 0h4.1016v1.9844h-4.1016zm4.2344 0h1.9844v1.9844h-1.9844zm2.1152 0h1.9844v1.9844h-1.9844zm2.1172 0h1.9844v1.9844h-1.9844zm2.1172 0h1.9844v1.9844h-1.9844zm2.1172 0h1.9844v1.9844h-1.9844zm2.1152 0h1.9844v1.9844h-1.9844zm2.1172 0h1.9844v1.9844h-1.9844zm2.1172 0h1.9844v1.9844h-1.9844zm2.1172 0h4.0996v1.9844h-4.0996zm4.2324 0h1.9844v1.9844h-1.9844zm2.1172 0h1.9844v1.9844h-1.9844zm2.1172 0h1.9844v1.9844h-1.9844zm2.1152 0h1.9863v1.9844h-1.9863zm2.1172 0h1.9844v1.9844h-1.9844zm2.1172 0h1.9844v1.9844h-1.9844zm2.1172 0h1.9844v1.9844h-1.9844zm2.1152 0h1.9863v1.9844h-1.9863zm2.1172 0h4.1016v1.9844h-4.1016zm4.2344 0h1.9844v1.9844h-1.9844zm2.1172 0h1.9844v1.9844h-1.9844zm2.1152 0h1.9844v1.9844h-1.9844zm2.1172 0h1.9844v1.9844h-1.9844zm2.1172 0h1.9844v1.9844h-1.9844zm2.1172 0h1.9844v1.9844h-1.9844zm2.1152 0h1.9844v1.9844h-1.9844zm2.1172 0h1.9844v1.9844h-1.9844zm-99.484 2.1172h1.9844v1.9844h-1.9844zm2.1152 0h1.9844v1.9844h-1.9844zm2.1172 0h1.9844v1.9844h-1.9844zm2.1172 0h1.9844v1.9844h-1.9844zm2.1172 0h1.9844v1.9844h-1.9844zm2.1152 0h1.9844v1.9844h-1.9844zm2.1172 0h1.9844v1.9844h-1.9844zm2.1172 0h1.9844v1.9844h-1.9844zm2.1172 0h4.0996v1.9844h-4.0996zm4.2324 0h1.9844v1.9844h-1.9844zm2.1172 0h1.9844v1.9844h-1.9844zm2.1172 0h1.9844v1.9844h-1.9844zm2.1152 0h1.9844v1.9844h-1.9844zm2.1172 0h1.9844v1.9844h-1.9844zm2.1172 0h1.9844v1.9844h-1.9844zm2.1172 0h1.9844v1.9844h-1.9844zm2.1152 0h1.9844v1.9844h-1.9844zm2.1172 0h4.1016v1.9844h-4.1016zm4.2344 0h1.9844v1.9844h-1.9844zm2.1152 0h1.9844v1.9844h-1.9844zm2.1172 0h1.9844v1.9844h-1.9844zm2.1172 0h1.9844v1.9844h-1.9844zm2.1172 0h1.9844v1.9844h-1.9844zm2.1152 0h1.9844v1.9844h-1.9844zm2.1172 0h1.9844v1.9844h-1.9844zm2.1172 0h1.9844v1.9844h-1.9844zm2.1172 0h4.0996v1.9844h-4.0996zm4.2324 0h1.9844v1.9844h-1.9844zm2.1172 0h1.9844v1.9844h-1.9844zm2.1172 0h1.9844v1.9844h-1.9844zm2.1152 0h1.9863v1.9844h-1.9863zm2.1172 0h1.9844v1.9844h-1.9844zm2.1172 0h1.9844v1.9844h-1.9844zm2.1172 0h1.9844v1.9844h-1.9844zm2.1152 0h1.9863v1.9844h-1.9863zm2.1172 0h4.1016v1.9844h-4.1016zm4.2344 0h1.9844v1.9844h-1.9844zm2.1172 0h1.9844v1.9844h-1.9844zm2.1152 0h1.9844v1.9844h-1.9844zm2.1172 0h1.9844v1.9844h-1.9844zm2.1172 0h1.9844v1.9844h-1.9844zm2.1172 0h1.9844v1.9844h-1.9844zm2.1152 0h1.9844v1.9844h-1.9844zm2.1172 0h1.9844v1.9844h-1.9844zm-99.484 2.1152h1.9844v1.9863h-1.9844zm2.1152 0h1.9844v1.9863h-1.9844zm2.1172 0h1.9844v1.9863h-1.9844zm2.1172 0h1.9844v1.9863h-1.9844zm2.1172 0h1.9844v1.9863h-1.9844zm2.1152 0h1.9844v1.9863h-1.9844zm2.1172 0h1.9844v1.9863h-1.9844zm2.1172 0h1.9844v1.9863h-1.9844zm2.1172 0h4.0996v1.9863h-4.0996zm4.2324 0h1.9844v1.9863h-1.9844zm2.1172 0h1.9844v1.9863h-1.9844zm2.1172 0h1.9844v1.9863h-1.9844zm2.1152 0h1.9844v1.9863h-1.9844zm2.1172 0h1.9844v1.9863h-1.9844zm2.1172 0h1.9844v1.9863h-1.9844zm2.1172 0h1.9844v1.9863h-1.9844zm2.1152 0h1.9844v1.9863h-1.9844zm2.1172 0h4.1016v1.9863h-4.1016zm4.2344 0h1.9844v1.9863h-1.9844zm2.1152 0h1.9844v1.9863h-1.9844zm2.1172 0h1.9844v1.9863h-1.9844zm2.1172 0h1.9844v1.9863h-1.9844zm2.1172 0h1.9844v1.9863h-1.9844zm2.1152 0h1.9844v1.9863h-1.9844zm2.1172 0h1.9844v1.9863h-1.9844zm2.1172 0h1.9844v1.9863h-1.9844zm2.1172 0h4.0996v1.9863h-4.0996zm4.2324 0h1.9844v1.9863h-1.9844zm2.1172 0h1.9844v1.9863h-1.9844zm2.1172 0h1.9844v1.9863h-1.9844zm2.1152 0h1.9863v1.9863h-1.9863zm2.1172 0h1.9844v1.9863h-1.9844zm2.1172 0h1.9844v1.9863h-1.9844zm2.1172 0h1.9844v1.9863h-1.9844zm2.1152 0h1.9863v1.9863h-1.9863zm2.1172 0h4.1016v1.9863h-4.1016zm4.2344 0h1.9844v1.9863h-1.9844zm2.1172 0h1.9844v1.9863h-1.9844zm2.1152 0h1.9844v1.9863h-1.9844zm2.1172 0h1.9844v1.9863h-1.9844zm2.1172 0h1.9844v1.9863h-1.9844zm2.1172 0h1.9844v1.9863h-1.9844zm2.1152 0h1.9844v1.9863h-1.9844zm2.1172 0h1.9844v1.9863h-1.9844zm-99.484 2.1172h1.9844v4.1016h-1.9844zm2.1152 0h1.9844v4.1016h-1.9844zm2.1172 0h1.9844v4.1016h-1.9844zm2.1172 0h1.9844v4.1016h-1.9844zm2.1172 0h1.9844v4.1016h-1.9844zm2.1152 0h1.9844v4.1016h-1.9844zm2.1172 0h1.9844v4.1016h-1.9844zm2.1172 0h1.9844v4.1016h-1.9844zm2.1172 0h4.0996v4.1016h-4.0996zm4.2324 0h1.9844v4.1016h-1.9844zm2.1172 0h1.9844v4.1016h-1.9844zm2.1172 0h1.9844v4.1016h-1.9844zm2.1152 0h1.9844v4.1016h-1.9844zm2.1172 0h1.9844v4.1016h-1.9844zm2.1172 0h1.9844v4.1016h-1.9844zm2.1172 0h1.9844v4.1016h-1.9844zm2.1152 0h1.9844v4.1016h-1.9844zm2.1172 0h4.1016v4.1016h-4.1016zm4.2344 0h1.9844v4.1016h-1.9844zm2.1152 0h1.9844v4.1016h-1.9844zm2.1172 0h1.9844v4.1016h-1.9844zm2.1172 0h1.9844v4.1016h-1.9844zm2.1172 0h1.9844v4.1016h-1.9844zm2.1152 0h1.9844v4.1016h-1.9844zm2.1172 0h1.9844v4.1016h-1.9844zm2.1172 0h1.9844v4.1016h-1.9844zm2.1172 0h4.0996v4.1016h-4.0996zm4.2324 0h1.9844v4.1016h-1.9844zm2.1172 0h1.9844v4.1016h-1.9844zm2.1172 0h1.9844v4.1016h-1.9844zm2.1152 0h1.9863v4.1016h-1.9863zm2.1172 0h1.9844v4.1016h-1.9844zm2.1172 0h1.9844v4.1016h-1.9844zm2.1172 0h1.9844v4.1016h-1.9844zm2.1152 0h1.9863v4.1016h-1.9863zm2.1172 0h4.1016v4.1016h-4.1016zm4.2344 0h1.9844v4.1016h-1.9844zm2.1172 0h1.9844v4.1016h-1.9844zm2.1152 0h1.9844v4.1016h-1.9844zm2.1172 0h1.9844v4.1016h-1.9844zm2.1172 0h1.9844v4.1016h-1.9844zm2.1172 0h1.9844v4.1016h-1.9844zm2.1152 0h1.9844v4.1016h-1.9844zm2.1172 0h1.9844v4.1016h-1.9844zm-99.484 4.2344h1.9844v1.9844h-1.9844zm2.1152 0h1.9844v1.9844h-1.9844zm2.1172 0h1.9844v1.9844h-1.9844zm2.1172 0h1.9844v1.9844h-1.9844zm2.1172 0h1.9844v1.9844h-1.9844zm2.1152 0h1.9844v1.9844h-1.9844zm2.1172 0h1.9844v1.9844h-1.9844zm2.1172 0h1.9844v1.9844h-1.9844zm2.1172 0h4.0996v1.9844h-4.0996zm4.2324 0h1.9844v1.9844h-1.9844zm2.1172 0h1.9844v1.9844h-1.9844zm2.1172 0h1.9844v1.9844h-1.9844zm2.1152 0h1.9844v1.9844h-1.9844zm2.1172 0h1.9844v1.9844h-1.9844zm2.1172 0h1.9844v1.9844h-1.9844zm2.1172 0h1.9844v1.9844h-1.9844zm2.1152 0h1.9844v1.9844h-1.9844zm2.1172 0h4.1016v1.9844h-4.1016zm4.2344 0h1.9844v1.9844h-1.9844zm2.1152 0h1.9844v1.9844h-1.9844zm2.1172 0h1.9844v1.9844h-1.9844zm2.1172 0h1.9844v1.9844h-1.9844zm2.1172 0h1.9844v1.9844h-1.9844zm2.1152 0h1.9844v1.9844h-1.9844zm2.1172 0h1.9844v1.9844h-1.9844zm2.1172 0h1.9844v1.9844h-1.9844zm2.1172 0h4.0996v1.9844h-4.0996zm4.2324 0h1.9844v1.9844h-1.9844zm2.1172 0h1.9844v1.9844h-1.9844zm2.1172 0h1.9844v1.9844h-1.9844zm2.1152 0h1.9863v1.9844h-1.9863zm2.1172 0h1.9844v1.9844h-1.9844zm2.1172 0h1.9844v1.9844h-1.9844zm2.1172 0h1.9844v1.9844h-1.9844zm2.1152 0h1.9863v1.9844h-1.9863zm2.1172 0h4.1016v1.9844h-4.1016zm4.2344 0h1.9844v1.9844h-1.9844zm2.1172 0h1.9844v1.9844h-1.9844zm2.1152 0h1.9844v1.9844h-1.9844zm2.1172 0h1.9844v1.9844h-1.9844zm2.1172 0h1.9844v1.9844h-1.9844zm2.1172 0h1.9844v1.9844h-1.9844zm2.1152 0h1.9844v1.9844h-1.9844zm2.1172 0h1.9844v1.9844h-1.9844zm-99.484 2.1172h1.9844v1.9844h-1.9844zm2.1152 0h1.9844v1.9844h-1.9844zm2.1172 0h1.9844v1.9844h-1.9844zm2.1172 0h1.9844v1.9844h-1.9844zm2.1172 0h1.9844v1.9844h-1.9844zm2.1152 0h1.9844v1.9844h-1.9844zm2.1172 0h1.9844v1.9844h-1.9844zm2.1172 0h1.9844v1.9844h-1.9844zm2.1172 0h4.0996v1.9844h-4.0996zm4.2324 0h1.9844v1.9844h-1.9844zm2.1172 0h1.9844v1.9844h-1.9844zm2.1172 0h1.9844v1.9844h-1.9844zm2.1152 0h1.9844v1.9844h-1.9844zm2.1172 0h1.9844v1.9844h-1.9844zm2.1172 0h1.9844v1.9844h-1.9844zm2.1172 0h1.9844v1.9844h-1.9844zm2.1152 0h1.9844v1.9844h-1.9844zm2.1172 0h4.1016v1.9844h-4.1016zm4.2344 0h1.9844v1.9844h-1.9844zm2.1152 0h1.9844v1.9844h-1.9844zm2.1172 0h1.9844v1.9844h-1.9844zm2.1172 0h1.9844v1.9844h-1.9844zm2.1172 0h1.9844v1.9844h-1.9844zm2.1152 0h1.9844v1.9844h-1.9844zm2.1172 0h1.9844v1.9844h-1.9844zm2.1172 0h1.9844v1.9844h-1.9844zm2.1172 0h4.0996v1.9844h-4.0996zm4.2324 0h1.9844v1.9844h-1.9844zm2.1172 0h1.9844v1.9844h-1.9844zm2.1172 0h1.9844v1.9844h-1.9844zm2.1152 0h1.9863v1.9844h-1.9863zm2.1172 0h1.9844v1.9844h-1.9844zm2.1172 0h1.9844v1.9844h-1.9844zm2.1172 0h1.9844v1.9844h-1.9844zm2.1152 0h1.9863v1.9844h-1.9863zm2.1172 0h4.1016v1.9844h-4.1016zm4.2344 0h1.9844v1.9844h-1.9844zm2.1172 0h1.9844v1.9844h-1.9844zm2.1152 0h1.9844v1.9844h-1.9844zm2.1172 0h1.9844v1.9844h-1.9844zm2.1172 0h1.9844v1.9844h-1.9844zm2.1172 0h1.9844v1.9844h-1.9844zm2.1152 0h1.9844v1.9844h-1.9844zm2.1172 0h1.9844v1.9844h-1.9844zm-99.484 2.1152h1.9844v1.9844h-1.9844zm2.1152 0h1.9844v1.9844h-1.9844zm2.1172 0h1.9844v1.9844h-1.9844zm2.1172 0h1.9844v1.9844h-1.9844zm2.1172 0h1.9844v1.9844h-1.9844zm2.1152 0h1.9844v1.9844h-1.9844zm2.1172 0h1.9844v1.9844h-1.9844zm2.1172 0h1.9844v1.9844h-1.9844zm2.1172 0h4.0996v1.9844h-4.0996zm4.2324 0h1.9844v1.9844h-1.9844zm2.1172 0h1.9844v1.9844h-1.9844zm2.1172 0h1.9844v1.9844h-1.9844zm2.1152 0h1.9844v1.9844h-1.9844zm2.1172 0h1.9844v1.9844h-1.9844zm2.1172 0h1.9844v1.9844h-1.9844zm2.1172 0h1.9844v1.9844h-1.9844zm2.1152 0h1.9844v1.9844h-1.9844zm2.1172 0h4.1016v1.9844h-4.1016zm4.2344 0h1.9844v1.9844h-1.9844zm2.1152 0h1.9844v1.9844h-1.9844zm2.1172 0h1.9844v1.9844h-1.9844zm2.1172 0h1.9844v1.9844h-1.9844zm2.1172 0h1.9844v1.9844h-1.9844zm2.1152 0h1.9844v1.9844h-1.9844zm2.1172 0h1.9844v1.9844h-1.9844zm2.1172 0h1.9844v1.9844h-1.9844zm2.1172 0h4.0996v1.9844h-4.0996zm4.2324 0h1.9844v1.9844h-1.9844zm2.1172 0h1.9844v1.9844h-1.9844zm2.1172 0h1.9844v1.9844h-1.9844zm2.1152 0h1.9863v1.9844h-1.9863zm2.1172 0h1.9844v1.9844h-1.9844zm2.1172 0h1.9844v1.9844h-1.9844zm2.1172 0h1.9844v1.9844h-1.9844zm2.1152 0h1.9863v1.9844h-1.9863zm2.1172 0h4.1016v1.9844h-4.1016zm4.2344 0h1.9844v1.9844h-1.9844zm2.1172 0h1.9844v1.9844h-1.9844zm2.1152 0h1.9844v1.9844h-1.9844zm2.1172 0h1.9844v1.9844h-1.9844zm2.1172 0h1.9844v1.9844h-1.9844zm2.1172 0h1.9844v1.9844h-1.9844zm2.1152 0h1.9844v1.9844h-1.9844zm2.1172 0h1.9844v1.9844h-1.9844zm-99.484 2.1172h1.9844v1.9844h-1.9844zm2.1152 0h1.9844v1.9844h-1.9844zm2.1172 0h1.9844v1.9844h-1.9844zm2.1172 0h1.9844v1.9844h-1.9844zm2.1172 0h1.9844v1.9844h-1.9844zm2.1152 0h1.9844v1.9844h-1.9844zm2.1172 0h1.9844v1.9844h-1.9844zm2.1172 0h1.9844v1.9844h-1.9844zm2.1172 0h4.0996v1.9844h-4.0996zm4.2324 0h1.9844v1.9844h-1.9844zm2.1172 0h1.9844v1.9844h-1.9844zm2.1172 0h1.9844v1.9844h-1.9844zm2.1152 0h1.9844v1.9844h-1.9844zm2.1172 0h1.9844v1.9844h-1.9844zm2.1172 0h1.9844v1.9844h-1.9844zm2.1172 0h1.9844v1.9844h-1.9844zm2.1152 0h1.9844v1.9844h-1.9844zm2.1172 0h4.1016v1.9844h-4.1016zm4.2344 0h1.9844v1.9844h-1.9844zm2.1152 0h1.9844v1.9844h-1.9844zm2.1172 0h1.9844v1.9844h-1.9844zm2.1172 0h1.9844v1.9844h-1.9844zm2.1172 0h1.9844v1.9844h-1.9844zm2.1152 0h1.9844v1.9844h-1.9844zm2.1172 0h1.9844v1.9844h-1.9844zm2.1172 0h1.9844v1.9844h-1.9844zm2.1172 0h4.0996v1.9844h-4.0996zm4.2324 0h1.9844v1.9844h-1.9844zm2.1172 0h1.9844v1.9844h-1.9844zm2.1172 0h1.9844v1.9844h-1.9844zm2.1152 0h1.9863v1.9844h-1.9863zm2.1172 0h1.9844v1.9844h-1.9844zm2.1172 0h1.9844v1.9844h-1.9844zm2.1172 0h1.9844v1.9844h-1.9844zm2.1152 0h1.9863v1.9844h-1.9863zm2.1172 0h4.1016v1.9844h-4.1016zm4.2344 0h1.9844v1.9844h-1.9844zm2.1172 0h1.9844v1.9844h-1.9844zm2.1152 0h1.9844v1.9844h-1.9844zm2.1172 0h1.9844v1.9844h-1.9844zm2.1172 0h1.9844v1.9844h-1.9844zm2.1172 0h1.9844v1.9844h-1.9844zm2.1152 0h1.9844v1.9844h-1.9844zm2.1172 0h1.9844v1.9844h-1.9844zm-99.484 2.1172h1.9844v1.9844h-1.9844zm2.1152 0h1.9844v1.9844h-1.9844zm2.1172 0h1.9844v1.9844h-1.9844zm2.1172 0h1.9844v1.9844h-1.9844zm2.1172 0h1.9844v1.9844h-1.9844zm2.1152 0h1.9844v1.9844h-1.9844zm2.1172 0h1.9844v1.9844h-1.9844zm2.1172 0h1.9844v1.9844h-1.9844zm2.1172 0h4.0996v1.9844h-4.0996zm4.2324 0h1.9844v1.9844h-1.9844zm2.1172 0h1.9844v1.9844h-1.9844zm2.1172 0h1.9844v1.9844h-1.9844zm2.1152 0h1.9844v1.9844h-1.9844zm2.1172 0h1.9844v1.9844h-1.9844zm2.1172 0h1.9844v1.9844h-1.9844zm2.1172 0h1.9844v1.9844h-1.9844zm2.1152 0h1.9844v1.9844h-1.9844zm2.1172 0h4.1016v1.9844h-4.1016zm4.2344 0h1.9844v1.9844h-1.9844zm2.1152 0h1.9844v1.9844h-1.9844zm2.1172 0h1.9844v1.9844h-1.9844zm2.1172 0h1.9844v1.9844h-1.9844zm2.1172 0h1.9844v1.9844h-1.9844zm2.1152 0h1.9844v1.9844h-1.9844zm2.1172 0h1.9844v1.9844h-1.9844zm2.1172 0h1.9844v1.9844h-1.9844zm2.1172 0h4.0996v1.9844h-4.0996zm4.2324 0h1.9844v1.9844h-1.9844zm2.1172 0h1.9844v1.9844h-1.9844zm2.1172 0h1.9844v1.9844h-1.9844zm2.1152 0h1.9863v1.9844h-1.9863zm2.1172 0h1.9844v1.9844h-1.9844zm2.1172 0h1.9844v1.9844h-1.9844zm2.1172 0h1.9844v1.9844h-1.9844zm2.1152 0h1.9863v1.9844h-1.9863zm2.1172 0h4.1016v1.9844h-4.1016zm4.2344 0h1.9844v1.9844h-1.9844zm2.1172 0h1.9844v1.9844h-1.9844zm2.1152 0h1.9844v1.9844h-1.9844zm2.1172 0h1.9844v1.9844h-1.9844zm2.1172 0h1.9844v1.9844h-1.9844zm2.1172 0h1.9844v1.9844h-1.9844zm2.1152 0h1.9844v1.9844h-1.9844zm2.1172 0h1.9844v1.9844h-1.9844zm-99.484 2.1172h1.9844v1.9844h-1.9844zm2.1152 0h1.9844v1.9844h-1.9844zm2.1172 0h1.9844v1.9844h-1.9844zm2.1172 0h1.9844v1.9844h-1.9844zm2.1172 0h1.9844v1.9844h-1.9844zm2.1152 0h1.9844v1.9844h-1.9844zm2.1172 0h1.9844v1.9844h-1.9844zm2.1172 0h1.9844v1.9844h-1.9844zm2.1172 0h4.0996v1.9844h-4.0996zm4.2324 0h1.9844v1.9844h-1.9844zm2.1172 0h1.9844v1.9844h-1.9844zm2.1172 0h1.9844v1.9844h-1.9844zm2.1152 0h1.9844v1.9844h-1.9844zm2.1172 0h1.9844v1.9844h-1.9844zm2.1172 0h1.9844v1.9844h-1.9844zm2.1172 0h1.9844v1.9844h-1.9844zm2.1152 0h1.9844v1.9844h-1.9844zm2.1172 0h4.1016v1.9844h-4.1016zm4.2344 0h1.9844v1.9844h-1.9844zm2.1152 0h1.9844v1.9844h-1.9844zm2.1172 0h1.9844v1.9844h-1.9844zm2.1172 0h1.9844v1.9844h-1.9844zm2.1172 0h1.9844v1.9844h-1.9844zm2.1152 0h1.9844v1.9844h-1.9844zm2.1172 0h1.9844v1.9844h-1.9844zm2.1172 0h1.9844v1.9844h-1.9844zm2.1172 0h4.0996v1.9844h-4.0996zm4.2324 0h1.9844v1.9844h-1.9844zm2.1172 0h1.9844v1.9844h-1.9844zm2.1172 0h1.9844v1.9844h-1.9844zm2.1152 0h1.9863v1.9844h-1.9863zm2.1172 0h1.9844v1.9844h-1.9844zm2.1172 0h1.9844v1.9844h-1.9844zm2.1172 0h1.9844v1.9844h-1.9844zm2.1152 0h1.9863v1.9844h-1.9863zm2.1172 0h4.1016v1.9844h-4.1016zm4.2344 0h1.9844v1.9844h-1.9844zm2.1172 0h1.9844v1.9844h-1.9844zm2.1152 0h1.9844v1.9844h-1.9844zm2.1172 0h1.9844v1.9844h-1.9844zm2.1172 0h1.9844v1.9844h-1.9844zm2.1172 0h1.9844v1.9844h-1.9844zm2.1152 0h1.9844v1.9844h-1.9844zm2.1172 0h1.9844v1.9844h-1.9844zm-99.484 2.1152h1.9844v1.9844h-1.9844zm2.1152 0h1.9844v1.9844h-1.9844zm2.1172 0h1.9844v1.9844h-1.9844zm2.1172 0h1.9844v1.9844h-1.9844zm2.1172 0h1.9844v1.9844h-1.9844zm2.1152 0h1.9844v1.9844h-1.9844zm2.1172 0h1.9844v1.9844h-1.9844zm2.1172 0h1.9844v1.9844h-1.9844zm2.1172 0h4.0996v1.9844h-4.0996zm4.2324 0h1.9844v1.9844h-1.9844zm2.1172 0h1.9844v1.9844h-1.9844zm2.1172 0h1.9844v1.9844h-1.9844zm2.1152 0h1.9844v1.9844h-1.9844zm2.1172 0h1.9844v1.9844h-1.9844zm2.1172 0h1.9844v1.9844h-1.9844zm2.1172 0h1.9844v1.9844h-1.9844zm2.1152 0h1.9844v1.9844h-1.9844zm2.1172 0h4.1016v1.9844h-4.1016zm4.2344 0h1.9844v1.9844h-1.9844zm2.1152 0h1.9844v1.9844h-1.9844zm2.1172 0h1.9844v1.9844h-1.9844zm2.1172 0h1.9844v1.9844h-1.9844zm2.1172 0h1.9844v1.9844h-1.9844zm2.1152 0h1.9844v1.9844h-1.9844zm2.1172 0h1.9844v1.9844h-1.9844zm2.1172 0h1.9844v1.9844h-1.9844zm2.1172 0h4.0996v1.9844h-4.0996zm4.2324 0h1.9844v1.9844h-1.9844zm2.1172 0h1.9844v1.9844h-1.9844zm2.1172 0h1.9844v1.9844h-1.9844zm2.1152 0h1.9863v1.9844h-1.9863zm2.1172 0h1.9844v1.9844h-1.9844zm2.1172 0h1.9844v1.9844h-1.9844zm2.1172 0h1.9844v1.9844h-1.9844zm2.1152 0h1.9863v1.9844h-1.9863zm2.1172 0h4.1016v1.9844h-4.1016zm4.2344 0h1.9844v1.9844h-1.9844zm2.1172 0h1.9844v1.9844h-1.9844zm2.1152 0h1.9844v1.9844h-1.9844zm2.1172 0h1.9844v1.9844h-1.9844zm2.1172 0h1.9844v1.9844h-1.9844zm2.1172 0h1.9844v1.9844h-1.9844zm2.1152 0h1.9844v1.9844h-1.9844zm2.1172 0h1.9844v1.9844h-1.9844zm-99.484 2.1172h1.9844v1.9844h-1.9844zm2.1152 0h1.9844v1.9844h-1.9844zm2.1172 0h1.9844v1.9844h-1.9844zm2.1172 0h1.9844v1.9844h-1.9844zm2.1172 0h1.9844v1.9844h-1.9844zm2.1152 0h1.9844v1.9844h-1.9844zm2.1172 0h1.9844v1.9844h-1.9844zm2.1172 0h1.9844v1.9844h-1.9844zm2.1172 0h4.0996v1.9844h-4.0996zm4.2324 0h1.9844v1.9844h-1.9844zm2.1172 0h1.9844v1.9844h-1.9844zm2.1172 0h1.9844v1.9844h-1.9844zm2.1152 0h1.9844v1.9844h-1.9844zm2.1172 0h1.9844v1.9844h-1.9844zm2.1172 0h1.9844v1.9844h-1.9844zm2.1172 0h1.9844v1.9844h-1.9844zm2.1152 0h1.9844v1.9844h-1.9844zm2.1172 0h4.1016v1.9844h-4.1016zm4.2344 0h1.9844v1.9844h-1.9844zm2.1152 0h1.9844v1.9844h-1.9844zm2.1172 0h1.9844v1.9844h-1.9844zm2.1172 0h1.9844v1.9844h-1.9844zm2.1172 0h1.9844v1.9844h-1.9844zm2.1152 0h1.9844v1.9844h-1.9844zm2.1172 0h1.9844v1.9844h-1.9844zm2.1172 0h1.9844v1.9844h-1.9844zm2.1172 0h4.0996v1.9844h-4.0996zm4.2324 0h1.9844v1.9844h-1.9844zm2.1172 0h1.9844v1.9844h-1.9844zm2.1172 0h1.9844v1.9844h-1.9844zm2.1152 0h1.9863v1.9844h-1.9863zm2.1172 0h1.9844v1.9844h-1.9844zm2.1172 0h1.9844v1.9844h-1.9844zm2.1172 0h1.9844v1.9844h-1.9844zm2.1152 0h1.9863v1.9844h-1.9863zm2.1172 0h4.1016v1.9844h-4.1016zm4.2344 0h1.9844v1.9844h-1.9844zm2.1172 0h1.9844v1.9844h-1.9844zm2.1152 0h1.9844v1.9844h-1.9844zm2.1172 0h1.9844v1.9844h-1.9844zm2.1172 0h1.9844v1.9844h-1.9844zm2.1172 0h1.9844v1.9844h-1.9844zm2.1152 0h1.9844v1.9844h-1.9844zm2.1172 0h1.9844v1.9844h-1.9844z" fill="#d9edf7"/>
	<path d="m1.7146e-6 0h105.84v105.84h-105.84z" fill="#d9edf7" fill-opacity=".1"/>
	<g fill="#31708f">
		<path d="m0-0.091797v0.18359h105.84v-0.18359z"/>
		<path d="m0 105.74v0.18554h105.84v-0.18554z"/>
		<path d="m0 42.242v0.18555h105.84v-0.18555z"/>
		<path d="m0 21.074v0.18555h105.84v-0.18555z"/>
		<path d="m0 63.408v0.18555h105.84v-0.18555z"/>
		<path d="m0 84.576v0.18555h105.84v-0.18555z"/>
		<path d="m-0.091797 0v105.84h0.18359v-105.84zm21.166 0v105.84h0.18555v-105.84zm21.168 0v105.84h0.18555v-105.84zm21.166 0v105.84h0.18555v-105.84zm21.168 0v105.84h0.18555v-105.84zm21.166 0v105.84h0.18554v-105.84z"/>
	</g>
	<path d="m52.92 51.862a1.0584 1.0584 0 0 1-1.0584 1.0584 1.0584 1.0584 0 0 1-1.0584-1.0584 1.0584 1.0584 0 0 1 1.0584-1.0584 1.0584 1.0584 0 0 1 1.0584 1.0584z"/>
	<path d="m31.752 9.5256a1.0584 1.0584 0 0 1-1.0584 1.0584 1.0584 1.0584 0 0 1-1.0584-1.0584 1.0584 1.0584 0 0 1 1.0584-1.0584 1.0584 1.0584 0 0 1 1.0584 1.0584z"/>
	<path d="m33.869 11.642a1.0584 1.0584 0 0 1-1.0584 1.0584 1.0584 1.0584 0 0 1-1.0584-1.0584 1.0584 1.0584 0 0 1 1.0584-1.0584 1.0584 1.0584 0 0 1 1.0584 1.0584z"/>
	<path d="m31.752 28.577a1.0584 1.0584 0 0 1-1.0584 1.0584 1.0584 1.0584 0 0 1-1.0584-1.0584 1.0584 1.0584 0 0 1 1.0584-1.0584 1.0584 1.0584 0 0 1 1.0584 1.0584z"/>
	<path d="m29.635 30.694a1.0584 1.0584 0 0 1-1.0584 1.0584 1.0584 1.0584 0 0 1-1.0584-1.0584 1.0584 1.0584 0 0 1 1.0584-1.0584 1.0584 1.0584 0 0 1 1.0584 1.0584z"/>
	<path d="m29.635 53.978a1.0584 1.0584 0 0 1-1.0584 1.0584 1.0584 1.0584 0 0 1-1.0584-1.0584 1.0584 1.0584 0 0 1 1.0584-1.0584 1.0584 1.0584 0 0 1 1.0584 1.0584z"/>
	<path d="m31.752 70.913a1.0584 1.0584 0 0 1-1.0584 1.0584 1.0584 1.0584 0 0 1-1.0584-1.0584 1.0584 1.0584 0 0 1 1.0584-1.0584 1.0584 1.0584 0 0 1 1.0584 1.0584z"/>
	<path d="m33.869 70.913a1.0584 1.0584 0 0 1-1.0584 1.0584 1.0584 1.0584 0 0 1-1.0584-1.0584 1.0584 1.0584 0 0 1 1.0584-1.0584 1.0584 1.0584 0 0 1 1.0584 1.0584z"/>
	<path d="m31.752 73.03a1.0584 1.0584 0 0 1-1.0584 1.0584 1.0584 1.0584 0 0 1-1.0584-1.0584 1.0584 1.0584 0 0 1 1.0584-1.0584 1.0584 1.0584 0 0 1 1.0584 1.0584z"/>
	<path d="m52.92 70.913a1.0584 1.0584 0 0 1-1.0584 1.0584 1.0584 1.0584 0 0 1-1.0584-1.0584 1.0584 1.0584 0 0 1 1.0584-1.0584 1.0584 1.0584 0 0 1 1.0584 1.0584z"/>
	<path d="m55.037 70.913a1.0584 1.0584 0 0 1-1.0584 1.0584 1.0584 1.0584 0 0 1-1.0584-1.0584 1.0584 1.0584 0 0 1 1.0584-1.0584 1.0584 1.0584 0 0 1 1.0584 1.0584z"/>
	<path d="m55.037 73.03a1.0584 1.0584 0 0 1-1.0584 1.0584 1.0584 1.0584 0 0 1-1.0584-1.0584 1.0584 1.0584 0 0 1 1.0584-1.0584 1.0584 1.0584 0 0 1 1.0584 1.0584z"/>
	<path d="m52.92 73.03a1.0584 1.0584 0 0 1-1.0584 1.0584 1.0584 1.0584 0 0 1-1.0584-1.0584 1.0584 1.0584 0 0 1 1.0584-1.0584 1.0584 1.0584 0 0 1 1.0584 1.0584z"/>
	<path d="m31.752 51.862a1.0584 1.0584 0 0 1-1.0584 1.0584 1.0584 1.0584 0 0 1-1.0584-1.0584 1.0584 1.0584 0 0 1 1.0584-1.0584 1.0584 1.0584 0 0 1 1.0584 1.0584z"/>
	<path d="m29.635 94.198a1.0584 1.0584 0 0 1-1.0584 1.0584 1.0584 1.0584 0 0 1-1.0584-1.0584 1.0584 1.0584 0 0 1 1.0584-1.0584 1.0584 1.0584 0 0 1 1.0584 1.0584z"/>
	<path d="m31.752 94.198a1.0584 1.0584 0 0 1-1.0584 1.0584 1.0584 1.0584 0 0 1-1.0584-1.0584 1.0584 1.0584 0 0 1 1.0584-1.0584 1.0584 1.0584 0 0 1 1.0584 1.0584z"/>
	<path d="m33.869 94.198a1.0584 1.0584 0 0 1-1.0584 1.0584 1.0584 1.0584 0 0 1-1.0584-1.0584 1.0584 1.0584 0 0 1 1.0584-1.0584 1.0584 1.0584 0 0 1 1.0584 1.0584z"/>
	<path d="m71.971 94.198a1.0584 1.0584 0 0 1-1.0584 1.0584 1.0584 1.0584 0 0 1-1.0584-1.0584 1.0584 1.0584 0 0 1 1.0584-1.0584 1.0584 1.0584 0 0 1 1.0584 1.0584z"/>
	<path d="m74.088 94.198a1.0584 1.0584 0 0 1-1.0584 1.0584 1.0584 1.0584 0 0 1-1.0584-1.0584 1.0584 1.0584 0 0 1 1.0584-1.0584 1.0584 1.0584 0 0 1 1.0584 1.0584z"/>
	<path d="m76.205 94.198a1.0584 1.0584 0 0 1-1.0584 1.0584 1.0584 1.0584 0 0 1-1.0584-1.0584 1.0584 1.0584 0 0 1 1.0584-1.0584 1.0584 1.0584 0 0 1 1.0584 1.0584z"/>
	<path d="m52.92 94.198a1.0584 1.0584 0 0 1-1.0584 1.0584 1.0584 1.0584 0 0 1-1.0584-1.0584 1.0584 1.0584 0 0 1 1.0584-1.0584 1.0584 1.0584 0 0 1 1.0584 1.0584z"/>
	<path d="m52.92 92.081a1.0584 1.0584 0 0 1-1.0584 1.0584 1.0584 1.0584 0 0 1-1.0584-1.0584 1.0584 1.0584 0 0 1 1.0584-1.0584 1.0584 1.0584 0 0 1 1.0584 1.0584z"/>
	<path d="m52.92 96.314a1.0584 1.0584 0 0 1-1.0584 1.0584 1.0584 1.0584 0 0 1-1.0584-1.0584 1.0584 1.0584 0 0 1 1.0584-1.0584 1.0584 1.0584 0 0 1 1.0584 1.0584z"/>
	<path d="m33.869 49.745a1.0584 1.0584 0 0 1-1.0584 1.0584 1.0584 1.0584 0 0 1-1.0584-1.0584 1.0584 1.0584 0 0 1 1.0584-1.0584 1.0584 1.0584 0 0 1 1.0584 1.0584z"/>
	<path d="m33.869 30.694a1.0584 1.0584 0 0 1-1.0584 1.0584 1.0584 1.0584 0 0 1-1.0584-1.0584 1.0584 1.0584 0 0 1 1.0584-1.0584 1.0584 1.0584 0 0 1 1.0584 1.0584z"/>
	<path d="m52.92 28.577a1.0584 1.0584 0 0 1-1.0584 1.0584 1.0584 1.0584 0 0 1-1.0584-1.0584 1.0584 1.0584 0 0 1 1.0584-1.0584 1.0584 1.0584 0 0 1 1.0584 1.0584z"/>
	<path d="m52.92 30.694a1.0584 1.0584 0 0 1-1.0584 1.0584 1.0584 1.0584 0 0 1-1.0584-1.0584 1.0584 1.0584 0 0 1 1.0584-1.0584 1.0584 1.0584 0 0 1 1.0584 1.0584z"/>
	<path d="m52.92 9.5256a1.0584 1.0584 0 0 1-1.0584 1.0584 1.0584 1.0584 0 0 1-1.0584-1.0584 1.0584 1.0584 0 0 1 1.0584-1.0584 1.0584 1.0584 0 0 1 1.0584 1.0584z"/>
	<path d="m24.299 2.3814q0.19051 0 0.28365 0.093139 0.09314 0.093139 0.09314 0.29424v0.75781h-0.09102l-0.02117-0.19051h-0.0064q-0.06139 0.095256-0.15029 0.15453-0.08679 0.057154-0.24343 0.057154-0.16299 0-0.25613-0.080438-0.093091-0.082556-0.093091-0.23497 0-0.16934 0.13759-0.25613 0.13759-0.088906 0.40008-0.09949l0.20533-0.010584v-0.078322q0-0.16511-0.06774-0.23496-0.06562-0.069854-0.19475-0.069854-0.08679 0-0.16723 0.023285-0.08044 0.023285-0.16088 0.061387l-0.0381-0.097373q0.08044-0.038102 0.17358-0.063504 0.09526-0.025402 0.19686-0.025402zm0.06774 0.58424q-0.21591 0.010584-0.32175 0.076205-0.10372 0.063504-0.10372 0.19051 0 0.10584 0.0635 0.16088 0.06562 0.05292 0.17993 0.05292 0.17569 0 0.27307-0.09949 0.09737-0.10161 0.09949-0.27942v-0.11007z"/>
	<path d="m23.935 23.994q0 0.06139-0.0021 0.13124-0.0021 0.06774-0.0042 0.11007h0.0063q0.04234-0.09526 0.13971-0.15876 0.09737-0.06562 0.24343-0.06562 0.21591 0 0.33657 0.14818 0.12278 0.14606 0.12278 0.43394 0 0.26672-0.12278 0.42759-0.12066 0.15876-0.3535 0.15876-0.14183 0-0.23285-0.05715-0.08891-0.05927-0.13124-0.14606h-0.0085l-0.02329 0.18204h-0.09102v-1.6088h0.12066zm0.36832 0.12066q-0.19686 0-0.28365 0.12278-0.08467 0.12277-0.08467 0.35562v0.01482q0 0.22861 0.08044 0.34927 0.08255 0.11854 0.27307 0.11854 0.17993 0 0.27095-0.12489 0.09314-0.12701 0.09314-0.35986 0-0.47628-0.34927-0.47628z"/>
	<path d="m24.33 45.886q-0.24767 0-0.38314-0.15241-0.13336-0.15241-0.13336-0.42548 0-0.19051 0.06774-0.32175t0.1884-0.19898q0.12277-0.06985 0.28577-0.06985 0.08044 0 0.15241 0.01482 0.07197 0.01482 0.12701 0.04022l-0.03387 0.10372q-0.05715-0.02328-0.12277-0.03598-0.06562-0.01482-0.12489-0.01482-0.2011 0-0.30905 0.12912-0.10584 0.12912-0.10584 0.35139 0 0.21168 0.09526 0.34292 0.09526 0.12912 0.29635 0.12912 0.08255 0 0.15664-0.01693 0.07409-0.01693 0.13336-0.04234v0.10796q-0.05504 0.02752-0.12701 0.04234-0.06986 0.01693-0.16299 0.01693z"/>
	<path d="m24.284 67.515q-0.2265 0-0.34927-0.14394-0.12066-0.14606-0.12066-0.42971 0-0.29 0.12701-0.44241 0.12701-0.15241 0.3535-0.15241 0.14183 0 0.22862 0.0635 0.08891 0.06139 0.13336 0.15029h0.0085q-0.0021-0.04869-0.0064-0.10796-0.0021-0.06139-0.0021-0.11219v-0.45511h0.12066v1.6088h-0.09737l-0.01693-0.19686h-0.0064q-0.04445 0.09102-0.13336 0.15453-0.08891 0.0635-0.2392 0.0635zm0.01482-0.10372q0.19475 0 0.2773-0.11854 0.08255-0.11854 0.08255-0.34292v-0.01905q0-0.23285-0.08255-0.35562-0.08044-0.12489-0.26883-0.12489-0.18204 0-0.27518 0.12912-0.09314 0.12701-0.09314 0.36409 0 0.22862 0.08891 0.34927 0.08891 0.11854 0.27095 0.11854z"/>
	<path d="m24.307 87.053q0.14394 0 0.2392 0.06774 0.09737 0.06562 0.14606 0.18204 0.0508 0.11642 0.0508 0.26672v0.08255h-0.80438q0 0.22438 0.10372 0.34504 0.10584 0.11854 0.30059 0.11854 0.10372 0 0.18204-0.01693 0.07832-0.01905 0.17146-0.05927v0.11007q-0.08467 0.0381-0.16723 0.05504-0.08255 0.01693-0.19051 0.01693-0.25402 0-0.38949-0.15453-0.13547-0.15453-0.13547-0.42124 0-0.17146 0.05715-0.30482 0.05927-0.13336 0.16934-0.20956 0.11007-0.07832 0.26672-0.07832zm-0.0021 0.10161q-0.15453 0-0.2519 0.10372-0.09526 0.10372-0.11007 0.29424h0.67526q0-0.17781-0.07832-0.28788-0.0762-0.11007-0.23496-0.11007z"/>
	<path d="m31.752 7.4088a1.0584 1.0584 0 0 1-1.0584 1.0584 1.0584 1.0584 0 0 1-1.0584-1.0584 1.0584 1.0584 0 0 1 1.0584-1.0584 1.0584 1.0584 0 0 1 1.0584 1.0584z"/>
	<path d="m55.037 9.5256a1.0584 1.0584 0 0 1-1.0584 1.0584 1.0584 1.0584 0 0 1-1.0584-1.0584 1.0584 1.0584 0 0 1 1.0584-1.0584 1.0584 1.0584 0 0 1 1.0584 1.0584z"/>
	<path d="m72.366 9.5108q0 0.38102-0.20321 0.57577-0.2011 0.19475-0.58424 0.19475h-0.37467v-1.5114h0.42124q0.35774 0 0.54825 0.19051 0.19263 0.1884 0.19263 0.55037zm-0.12912 0.00423q0-0.63716-0.63716-0.63716h-0.27307v1.2955h0.24132q0.66891 0 0.66891-0.65832zm0.81285 0.76628h-0.44453v-0.0762l0.16088-0.02328v-1.3103l-0.16088-0.025402v-0.076205h0.44453v0.076205l-0.16088 0.025402v1.3103l0.16088 0.02328zm1.1473 0h-0.82979v-1.5114h0.82979v0.11007h-0.70701v0.55248h0.66679v0.11007h-0.66679v0.62869h0.70701zm1.1791-0.39373q0 0.13548-0.06774 0.22861-0.06774 0.09314-0.18628 0.13971-0.11854 0.04657-0.26883 0.04657-0.13759 0-0.2392-0.01905-0.10161-0.01905-0.17358-0.04869v-0.12065q0.07832 0.03175 0.18628 0.05504 0.10796 0.02328 0.23285 0.02328 0.17358 0 0.28154-0.07409 0.11007-0.07409 0.11007-0.22226 0-0.088906-0.04234-0.14606-0.04022-0.05927-0.12701-0.10161-0.08467-0.044453-0.21803-0.088906-0.12701-0.042336-0.21803-0.095256-0.09102-0.05292-0.13971-0.13124-0.04869-0.080439-0.04869-0.2011 0-0.12277 0.06139-0.20745 0.0635-0.086789 0.17146-0.13124 0.11007-0.044453 0.24978-0.044453 0.11007 0 0.20956 0.021168t0.1884 0.05927l-0.04022 0.10584q-0.18204-0.076205-0.36197-0.076205-0.15664 0-0.25613 0.069854-0.09737 0.067738-0.09737 0.2011 0 0.097373 0.04234 0.15664 0.04234 0.057154 0.12278 0.097373 0.08044 0.040219 0.19686 0.080438 0.13336 0.04657 0.22862 0.097373 0.09737 0.050803 0.15029 0.12912 0.05292 0.076205 0.05292 0.19686z"/>
	<path d="m72.366 29.62q0 0.38102-0.20321 0.57577-0.2011 0.19475-0.58424 0.19475h-0.37467v-1.5114h0.42124q0.35774 0 0.54825 0.19051 0.19263 0.1884 0.19263 0.55037zm-0.12912 0.0042q0-0.63716-0.63716-0.63716h-0.27307v1.2955h0.24132q0.66891 0 0.66891-0.65832zm0.81285 0.76628h-0.44453v-0.07621l0.16088-0.02328v-1.3103l-0.16088-0.0254v-0.0762h0.44453v0.0762l-0.16088 0.0254v1.3103l0.16088 0.02328zm1.1473 0h-0.82979v-1.5114h0.82979v0.11007h-0.70701v0.55248h0.66679v0.11007h-0.66679v0.62869h0.70701zm1.1791-0.39372q0 0.13548-0.06774 0.22861-0.06774 0.09314-0.18628 0.13971-0.11854 0.04657-0.26883 0.04657-0.13759 0-0.2392-0.01905-0.10161-0.01905-0.17358-0.04869v-0.12066q0.07832 0.03175 0.18628 0.05504 0.10796 0.02328 0.23285 0.02328 0.17358 0 0.28154-0.07409 0.11007-0.07409 0.11007-0.22226 0-0.08891-0.04234-0.14606-0.04022-0.05927-0.12701-0.10161-0.08467-0.04445-0.21803-0.08891-0.12701-0.04234-0.21803-0.09526-0.09102-0.05292-0.13971-0.13124-0.04869-0.08044-0.04869-0.2011 0-0.12277 0.06139-0.20745 0.0635-0.08679 0.17146-0.13124 0.11007-0.04445 0.24978-0.04445 0.11007 0 0.20956 0.02117t0.1884 0.05927l-0.04022 0.10584q-0.18204-0.0762-0.36197-0.0762-0.15664 0-0.25613 0.06986-0.09737 0.06774-0.09737 0.2011 0 0.09737 0.04234 0.15664 0.04234 0.05715 0.12278 0.09737 0.08044 0.04022 0.19686 0.08044 0.13336 0.04657 0.22862 0.09737 0.09737 0.0508 0.15029 0.12912 0.05292 0.0762 0.05292 0.19686z"/>
	<path d="m72.366 51.847q0 0.38102-0.20321 0.57577-0.2011 0.19474-0.58424 0.19474h-0.37467v-1.5114h0.42124q0.35774 0 0.54825 0.19051 0.19263 0.1884 0.19263 0.55037zm-0.12912 0.0042q0-0.63716-0.63716-0.63716h-0.27307v1.2955h0.24132q0.66891 0 0.66891-0.65832zm0.81285 0.76628h-0.44453v-0.07621l0.16088-0.02328v-1.3103l-0.16088-0.0254v-0.07621h0.44453v0.07621l-0.16088 0.0254v1.3103l0.16088 0.02328zm1.1473 0h-0.82979v-1.5114h0.82979v0.11007h-0.70701v0.55248h0.66679v0.11007h-0.66679v0.62869h0.70701zm1.1791-0.39372q0 0.13548-0.06774 0.22862-0.06774 0.09314-0.18628 0.13971-0.11854 0.04657-0.26883 0.04657-0.13759 0-0.2392-0.01905-0.10161-0.01905-0.17358-0.04869v-0.12066q0.07832 0.03175 0.18628 0.05504 0.10796 0.02329 0.23285 0.02329 0.17358 0 0.28154-0.07409 0.11007-0.07409 0.11007-0.22226 0-0.08891-0.04234-0.14606-0.04022-0.05927-0.12701-0.10161-0.08467-0.04445-0.21803-0.08891-0.12701-0.04234-0.21803-0.09526-0.09102-0.05292-0.13971-0.13124-0.04869-0.08044-0.04869-0.2011 0-0.12278 0.06139-0.20745 0.0635-0.08679 0.17146-0.13124 0.11007-0.04445 0.24978-0.04445 0.11007 0 0.20956 0.02117t0.1884 0.05927l-0.04022 0.10584q-0.18204-0.07621-0.36197-0.07621-0.15664 0-0.25613 0.06985-0.09737 0.06774-0.09737 0.2011 0 0.09737 0.04234 0.15664 0.04234 0.05715 0.12278 0.09737 0.08044 0.04022 0.19686 0.08044 0.13336 0.04657 0.22862 0.09737 0.09737 0.0508 0.15029 0.12912 0.05292 0.07621 0.05292 0.19686z"/>
	<path d="m50.262 76.757q0.27942 0 0.41278 0.0889 0.13336 0.08679 0.13336 0.27942 0 0.13124-0.07621 0.22438-0.07409 0.09314-0.21803 0.11854v0.0064q0.16511 0.02752 0.2519 0.11642 0.08679 0.0889 0.08679 0.24766 0 0.14606-0.06774 0.24132-0.06774 0.09526-0.1884 0.14182-0.11854 0.04657-0.27518 0.04657h-0.4784v-1.5114zm0.02752 0.66679q0.20956 0 0.30058-0.07197 0.09102-0.07197 0.09102-0.2138 0-0.14606-0.09949-0.20956-0.09949-0.0635-0.31964-0.0635h-0.29635v0.55884zm-0.32387 0.10584v0.63081h0.34504q0.20745 0 0.30905-0.08255 0.10161-0.08467 0.10161-0.24555 0-0.15664-0.10584-0.22861-0.10584-0.07409-0.32387-0.07409zm1.215 0.73876v-1.5114h0.12278v1.3992h0.70913v0.11219zm2.3285-0.75782q0 0.23073-0.0762 0.40643-0.07621 0.17569-0.22861 0.27518-0.15029 0.09737-0.37467 0.09737-0.22861 0-0.38102-0.09737-0.15029-0.09949-0.2265-0.27518-0.07409-0.17781-0.07409-0.40854 0-0.23073 0.0762-0.40431 0.07832-0.17358 0.23073-0.27095 0.15453-0.09949 0.38102-0.09949 0.21803 0 0.36832 0.09526 0.15029 0.09314 0.2265 0.26672 0.07832 0.17358 0.07832 0.41489zm-1.232-0.0021q0 0.2011 0.05927 0.3535 0.05927 0.15029 0.18204 0.23496 0.12277 0.08255 0.31117 0.08255 0.19051 0 0.31117-0.08255 0.12277-0.08255 0.17993-0.23285 0.05927-0.15241 0.05927-0.35351 0-0.3154-0.13759-0.4911-0.13548-0.1757-0.40642-0.1757-0.1884 0-0.31329 0.08467-0.12489 0.08256-0.18628 0.23285-0.05927 0.14818-0.05927 0.34716zm2.2205-0.66256q-0.18628 0-0.31964 0.08467-0.13336 0.08255-0.20533 0.23285-0.06986 0.14818-0.06986 0.34504 0 0.20321 0.0635 0.35562 0.0635 0.15029 0.19051 0.23285 0.12912 0.08255 0.31964 0.08255 0.11007 0 0.2011-0.01693 0.09314-0.01693 0.17569-0.04445v0.10796q-0.07832 0.02963-0.17146 0.04657t-0.21803 0.01694q-0.22861 0-0.38314-0.09737-0.15241-0.09737-0.23073-0.27307-0.0762-0.1757-0.0762-0.41066 0-0.22438 0.08467-0.39796 0.08679-0.17569 0.24767-0.27518 0.16299-0.09949 0.39372-0.09949 0.22015 0 0.39584 0.08255l-0.04869 0.10796q-0.16299-0.08044-0.34927-0.08044zm1.7104 1.4225h-0.14818l-0.57577-0.78322-0.1884 0.17993v0.60329h-0.12278v-1.5114h0.12278v0.78533q0.04445-0.04869 0.08891-0.09737 0.04657-0.0508 0.09526-0.10161l0.55884-0.58635h0.15029l-0.61387 0.64351z"/>
	<path d="m48.91 80.335q0-0.27095 0.07832-0.51015 0.07832-0.2392 0.23073-0.42124h0.12277q-0.15453 0.19263-0.23285 0.43183-0.07621 0.2392-0.07621 0.49745 0 0.25402 0.07621 0.48898 0.07832 0.23285 0.23285 0.42759h-0.12277q-0.15241-0.18204-0.23073-0.41489-0.07832-0.23285-0.07832-0.49956zm1.5516 0.18628q0 0.13548-0.06774 0.22861-0.06774 0.09314-0.18628 0.13971-0.11854 0.04657-0.26883 0.04657-0.13759 0-0.2392-0.01905-0.10161-0.01905-0.17358-0.04869v-0.12066q0.07832 0.03175 0.18628 0.05504 0.10796 0.02329 0.23285 0.02329 0.17358 0 0.28153-0.07409 0.11007-0.07409 0.11007-0.22226 0-0.08891-0.04234-0.14606-0.04022-0.05927-0.12701-0.10161-0.08467-0.04445-0.21803-0.08891-0.12701-0.04234-0.21803-0.09526-0.09102-0.05292-0.13971-0.13124-0.04869-0.08044-0.04869-0.2011 0-0.12277 0.06139-0.20745 0.0635-0.08679 0.17146-0.13124 0.11007-0.04445 0.24978-0.04445 0.11007 0 0.20956 0.02117t0.1884 0.05927l-0.04022 0.10584q-0.18204-0.07621-0.36197-0.07621-0.15664 0-0.25613 0.06986-0.09737 0.06774-0.09737 0.2011 0 0.09737 0.04234 0.15664 0.04234 0.05715 0.12278 0.09737 0.08044 0.04022 0.19686 0.08044 0.13336 0.04657 0.22861 0.09737 0.09737 0.0508 0.15029 0.12912 0.05292 0.0762 0.05292 0.19686zm0.72818 0.39372h-0.12277v-1.4013h-0.48686v-0.11007h1.0965v0.11007h-0.48686zm1.5114 0-0.2011-0.52073h-0.62657l-0.20321 0.52073h-0.12701l0.59482-1.5177h0.11219l0.58 1.5177zm-0.4403-1.1769q-0.0127-0.02963-0.03387-0.09314-0.02117-0.0635-0.03598-0.11219-0.01694 0.05715-0.03599 0.11219-0.01905 0.05504-0.03175 0.09526l-0.20956 0.5419h0.54825zm1.2002-0.33445q0.27942 0 0.41278 0.0889 0.13336 0.08679 0.13336 0.27942 0 0.13124-0.07621 0.22438-0.07409 0.09314-0.21803 0.11854v0.0064q0.16511 0.02752 0.2519 0.11642 0.08679 0.0889 0.08679 0.24766 0 0.14606-0.06774 0.24132-0.06774 0.09526-0.1884 0.14182-0.11854 0.04657-0.27518 0.04657h-0.4784v-1.5114zm0.02752 0.66679q0.20956 0 0.30059-0.07197 0.09102-0.07197 0.09102-0.2138 0-0.14606-0.09949-0.20956-0.09949-0.0635-0.31964-0.0635h-0.29635v0.55884zm-0.32387 0.10584v0.63081h0.34504q0.20745 0 0.30905-0.08255 0.10161-0.08467 0.10161-0.24555 0-0.15664-0.10584-0.22861-0.10584-0.07409-0.32387-0.07409zm1.215 0.73876v-1.5114h0.12278v1.3992h0.70913v0.11219zm1.9199 0h-0.82979v-1.5114h0.82979v0.11007h-0.70701v0.55248h0.66679v0.11007h-0.66679v0.62869h0.70701zm0.6308-0.58847q0 0.26883-0.07832 0.50803-0.07832 0.23708-0.23073 0.41489h-0.12066q0.15453-0.19263 0.23073-0.42971 0.07621-0.23708 0.07621-0.49322 0-0.25825-0.07832-0.49321-0.07621-0.23708-0.23073-0.42971h0.12277q0.15241 0.18416 0.23073 0.41913 0.07832 0.23496 0.07832 0.5038z"/>
	<path d="m48.25 99.861q0.27942 0 0.41278 0.08891 0.13336 0.08679 0.13336 0.27942 0 0.13124-0.0762 0.22438-0.07409 0.0931-0.21803 0.11854v6e-3q0.16511 0.0275 0.2519 0.11643 0.08679 0.0889 0.08679 0.24766 0 0.14606-0.06774 0.24132-0.06774 0.0952-0.1884 0.14182-0.11854 0.0466-0.27518 0.0466h-0.4784v-1.5114zm0.02752 0.66679q0.20956 0 0.30058-0.072 0.09102-0.072 0.09102-0.2138 0-0.14606-0.09949-0.20956-0.09949-0.06351-0.31964-0.06351h-0.29635v0.55884zm-0.32387 0.10584v0.6308h0.34504q0.20745 0 0.30905-0.0825 0.10161-0.0847 0.10161-0.24555 0-0.15664-0.10584-0.22861-0.10584-0.0741-0.32387-0.0741zm1.215 0.73876v-1.5114h0.12277v1.3992h0.70913v0.11219zm1.431 0h-0.44453v-0.0762l0.16088-0.0233v-1.3103l-0.16088-0.0254v-0.07621h0.44453v0.07621l-0.16088 0.0254v1.3103l0.16088 0.0233zm1.4373 0h-0.13124l-0.87636-1.3209h-0.0063q0.0042 0.0825 0.0063 0.17569 0.0042 0.091 0.0042 0.19051v0.95468h-0.11642v-1.5114h0.13124l0.87424 1.3167h0.0064q-0.0042-0.0656-0.0064-0.16723-0.0021-0.10161-0.0021-0.19051v-0.95891h0.11642zm1.4585 0h-0.14818l-0.57577-0.78321-0.1884 0.17992v0.60329h-0.12278v-1.5114h0.12278v0.78533q0.04445-0.0487 0.0889-0.0974 0.04657-0.0508 0.09526-0.10161l0.55884-0.58635h0.15029l-0.61387 0.6435zm1.0415 0h-0.82978v-1.5114h0.82978v0.11007h-0.70701v0.55248h0.66679v0.11008h-0.66679v0.62869h0.70701zm0.7176-1.5114q0.27095 0 0.40642 0.09526 0.13759 0.09314 0.13759 0.31964 0 0.17358-0.09314 0.27307-0.09102 0.0974-0.22861 0.13759l0.41489 0.68584h-0.14606l-0.38526-0.65197h-0.35986v0.65197h-0.12278v-1.5114zm-0.01058 0.10796h-0.24343v0.64563h0.28577q0.18416 0 0.28365-0.0847 0.10161-0.0868 0.10161-0.24978 0-0.17358-0.10584-0.24131-0.10584-0.06986-0.32175-0.06986z"/>
	<path d="m66.198 100.64q0-0.27095 0.07832-0.51014 0.07832-0.2392 0.23073-0.42125h0.12277q-0.15453 0.19263-0.23285 0.43183-0.0762 0.2392-0.0762 0.49745 0 0.25401 0.0762 0.48898 0.07832 0.23285 0.23285 0.42759h-0.12277q-0.15241-0.18204-0.23073-0.41489-0.07832-0.23285-0.07832-0.49957zm1.0902-0.93139q0.54402 0 0.54402 0.4276 0 0.21803-0.14183 0.34292-0.13971 0.12277-0.43394 0.12277h-0.22226v0.61811h-0.12278v-1.5114zm-0.0127 0.10796h-0.24132v0.67737h0.20956q0.21803 0 0.33869-0.0762 0.12278-0.0762 0.12278-0.27518 0-0.16935-0.10584-0.24767-0.10372-0.07832-0.32387-0.07832zm1.7125 1.4034h-0.82979v-1.5114h0.82979v0.11007h-0.70701v0.55248h0.66679v0.11007h-0.66679v0.62869h0.70701zm0.71759-1.5114q0.27095 0 0.40643 0.09526 0.13759 0.09314 0.13759 0.31963 0 0.17358-0.09314 0.27307-0.09102 0.0974-0.22861 0.13759l0.41489 0.68585h-0.14606l-0.38526-0.65198h-0.35986v0.65198h-0.12277v-1.5114zm-0.01058 0.10796h-0.24343v0.64562h0.28577q0.18416 0 0.28365-0.0847 0.10161-0.0868 0.10161-0.24978 0-0.17358-0.10584-0.24132-0.10584-0.06985-0.32175-0.06985zm1.2447 1.4034h-0.44453v-0.0762l0.16088-0.0233v-1.3103l-0.16088-0.0254v-0.07621h0.44453v0.07621l-0.16088 0.0254v1.3103l0.16088 0.0233zm1.5982-0.75782q0 0.23073-0.07621 0.40643-0.07621 0.17569-0.22861 0.27518-0.15029 0.0974-0.37467 0.0974-0.22861 0-0.38102-0.0974-0.15029-0.0995-0.2265-0.27518-0.07409-0.17781-0.07409-0.40854 0-0.23074 0.0762-0.40431 0.07832-0.17358 0.23073-0.27095 0.15453-0.09949 0.38102-0.09949 0.21803 0 0.36832 0.09526 0.15029 0.09314 0.2265 0.26672 0.07832 0.17358 0.07832 0.41489zm-1.232-2e-3q0 0.20109 0.05927 0.3535 0.05927 0.15029 0.18204 0.23497 0.12277 0.0825 0.31117 0.0825 0.19051 0 0.31117-0.0825 0.12277-0.0826 0.17993-0.23285 0.05927-0.15241 0.05927-0.35351 0-0.3154-0.13759-0.4911-0.13548-0.17569-0.40642-0.17569-0.1884 0-0.31329 0.08467-0.12489 0.08255-0.18628 0.23285-0.05927 0.14818-0.05927 0.34716zm2.7391-0.0106q0 0.38103-0.20321 0.57577-0.2011 0.19475-0.58424 0.19475h-0.37467v-1.5114h0.42124q0.35774 0 0.54825 0.19051 0.19263 0.1884 0.19263 0.55037zm-0.12912 4e-3q0-0.63716-0.63716-0.63716h-0.27307v1.2955h0.24132q0.66891 0 0.66891-0.65832zm1.4331 0.76628h-0.12278v-1.4012h-0.48686v-0.11007h1.0965v0.11007h-0.48686zm2.3602-1.5114-0.41066 1.5114h-0.12066l-0.31752-1.1113q-0.02329-0.0762-0.04022-0.13971-0.01694-0.06562-0.0254-0.10796-0.0064 0.04022-0.02117 0.10161-0.0127 0.05927-0.03175 0.12489l-0.3154 1.1325h-0.12066l-0.40642-1.5114h0.12701l0.27518 1.0372q0.02117 0.0889 0.0381 0.163 0.01905 0.072 0.03175 0.14182 0.0127-0.072 0.02963-0.14817 0.01694-0.0762 0.04234-0.163l0.29212-1.0309h0.12489l0.30058 1.0372q0.0254 0.091 0.04234 0.16723 0.01905 0.0741 0.03175 0.14183 0.01058-0.0699 0.0254-0.14183 0.01693-0.0741 0.04234-0.16723l0.27942-1.0372zm1.5177 0.75358q0 0.23073-0.0762 0.40643-0.0762 0.17569-0.22862 0.27518-0.15029 0.0974-0.37467 0.0974-0.22862 0-0.38102-0.0974-0.15029-0.0995-0.2265-0.27518-0.07409-0.17781-0.07409-0.40854 0-0.23074 0.07621-0.40431 0.07832-0.17358 0.23073-0.27095 0.15453-0.09949 0.38102-0.09949 0.21803 0 0.36832 0.09526 0.15029 0.09314 0.2265 0.26672 0.07832 0.17358 0.07832 0.41489zm-1.232-2e-3q0 0.20109 0.05927 0.3535 0.05927 0.15029 0.18204 0.23497 0.12277 0.0825 0.31117 0.0825 0.19051 0 0.31117-0.0825 0.12278-0.0826 0.17993-0.23285 0.05927-0.15241 0.05927-0.35351 0-0.3154-0.13759-0.4911-0.13548-0.17569-0.40643-0.17569-0.1884 0-0.31329 0.08467-0.12489 0.08255-0.18628 0.23285-0.05927 0.14818-0.05927 0.34716zm1.867 0.17146q0 0.26883-0.07832 0.50803-0.07832 0.23708-0.23073 0.41489h-0.12066q0.15453-0.19263 0.23073-0.42971 0.07621-0.23708 0.07621-0.49321 0-0.25825-0.07832-0.49322-0.07621-0.23708-0.23073-0.42971h0.12277q0.15241 0.18416 0.23073 0.41913 0.07832 0.23496 0.07832 0.5038z"/>
</svg>
