<svg width="400" height="300" version="1.1" viewBox="0 0 105.83 79.375" xmlns="http://www.w3.org/2000/svg">
	<defs>
		<marker id="Arrow2Mstart" overflow="visible" orient="auto">
			<path transform="scale(.6) translate(0)" d="m8.7186 4.0337-10.926-4.0177 10.926-4.0177c-1.7455 2.3721-1.7354 5.6175-6e-7 8.0354z" fill-rule="evenodd" stroke="#000" stroke-linejoin="round" stroke-width=".625"/>
		</marker>
	</defs>
	<path d="m89.957 39.365a37.042 37.042 0 0 1-37.042 37.042 37.042 37.042 0 0 1-37.042-37.042 37.042 37.042 0 0 1 37.042-37.042 37.042 37.042 0 0 1 37.042 37.042z" fill="none" stroke="#000" stroke-width=".31009"/>
	<g transform="matrix(.19339 0 0 .19339 74.458 10.333)">
		<path d="m41.704 23.611h21.189" fill="none" marker-start="url(#Arrow2Mstart)" stroke="#000" stroke-width=".52917"/>
		<path d="m68.335 21.051q1.0529 0 1.5342 0.41364t0.48132 1.1657q0 0.44372-0.20306 0.83479-0.19554 0.38355-0.66934 0.62421-0.46627 0.24066-1.271 0.24066h-0.6167v2.0907h-0.67685v-5.3697zm-0.0602 0.57909h-0.68438v2.1208h0.54149q0.7671 0 1.1431-0.24818t0.37603-0.84231q0-0.51892-0.3309-0.77463-0.33091-0.2557-1.0454-0.2557z"/>
		<path d="m72.038 20.705v1.6771q0 0.30083-0.0376 0.56405h0.0451q0.19553-0.30835 0.52644-0.46628 0.33843-0.15793 0.7295-0.15793 0.73703 0 1.1055 0.35347 0.36851 0.34595 0.36851 1.1206v2.6247h-0.6543v-2.5796q0-0.97016-0.90247-0.97016-0.67686 0-0.93256 0.38355-0.24818 0.37603-0.24818 1.083v2.0832h-0.66182v-5.7157z"/>
		<path d="m75.92 26.015q0-0.27826 0.13538-0.39107 0.13537-0.11281 0.32338-0.11281 0.19554 0 0.33091 0.11281 0.14289 0.11281 0.14289 0.39107 0 0.27074-0.14289 0.39107-0.13537 0.12033-0.33091 0.12033-0.18801 0-0.32338-0.12033-0.13538-0.12033-0.13538-0.39107z"/>
		<path d="m82.423 23.683q0 1.3612-0.74454 2.0531-0.73702 0.68438-2.0607 0.68438h-1.4966v-5.3697h1.6545q0.81223 0 1.4064 0.30082 0.59413 0.30083 0.91751 0.88744 0.32339 0.57909 0.32339 1.444zm-0.71446 0.02256q0-1.0755-0.53396-1.5718-0.52645-0.50388-1.4966-0.50388h-0.87992v4.2116h0.72951q2.181 0 2.181-2.1359z"/>
		<path d="m83.133 26.015q0-0.27826 0.13537-0.39107t0.32339-0.11281q0.19553 0 0.3309 0.11281 0.1429 0.11281 0.1429 0.39107 0 0.27074-0.1429 0.39107-0.13537 0.12033-0.3309 0.12033-0.18802 0-0.32339-0.12033t-0.13537-0.39107z"/>
	</g>
	<path d="m80.115 14.423a0.83845 0.84435 0 0 1 0.81547-0.22002 0.83845 0.84435 0 0 1 0.59217 0.60595 0.83845 0.84435 0 0 1-0.2315 0.81759l-0.58092-0.60884z" stroke-width=".34841"/>
	<ellipse cx="80.667" cy="15.035" rx=".62127" ry=".62564" fill="#fff" stroke-width=".25816"/>
</svg>
