<svg width="400" height="300" version="1.1" viewBox="0 0 105.83 79.375" xmlns="http://www.w3.org/2000/svg">
	<path d="m89.957 39.365a37.042 37.042 0 0 1-37.042 37.042 37.042 37.042 0 0 1-37.042-37.042 37.042 37.042 0 0 1 37.042-37.042 37.042 37.042 0 0 1 37.042 37.042z" fill="none" stroke="#000" stroke-width=".31"/>
	<path d="m57.149 39.365a4.2333 4.2333 0 0 1-4.2333 4.2333 4.2333 4.2333 0 0 1-4.2333-4.2333 4.2333 4.2333 0 0 1 4.2333-4.2333 4.2333 4.2333 0 0 1 4.2333 4.2333z" fill="#00f"/>
</svg>
