<svg width="400" height="300" version="1.1" viewBox="0 0 105.83 79.375" xmlns="http://www.w3.org/2000/svg">
	<defs>
		<marker id="Arrow2Mstart" overflow="visible" orient="auto">
			<path transform="scale(.6) translate(0)" d="m8.7186 4.0337-10.926-4.0177 10.926-4.0177c-1.7455 2.3721-1.7354 5.6175-6e-7 8.0354z" fill-rule="evenodd" stroke="#000" stroke-linejoin="round" stroke-width=".625"/>
		</marker>
	</defs>
	<path d="m0.055826 8.5951a89.665 89.665 0 0 1 67.894 70.739" fill="none" stroke="#000" stroke-width=".74718"/>
	<path d="m-6.9799 75.379 9.5959 10.653s51.619-43.477 46.434-49.926c-5.1851-6.4482-56.031 39.273-56.031 39.273z" fill="#a00" stroke-width="2.4105"/>
	<path d="m46.064 35.278c3.2527-0.56878 4.3262 0.75645 3.2619 4.1498" fill="none" stroke="#000" stroke-width=".74718"/>
	<path d="m54.148 36.055h21.189" fill="none" marker-start="url(#Arrow2Mstart)" stroke="#000" stroke-width=".52917"/>
	<g>
		<path d="m80.779 33.496q1.0529 0 1.5342 0.41364t0.48132 1.1657q0 0.44372-0.20306 0.83479-0.19554 0.38355-0.66934 0.62421-0.46628 0.24066-1.271 0.24066h-0.61669v2.0907h-0.67686v-5.3697zm-0.06016 0.57909h-0.68438v2.1208h0.54149q0.7671 0 1.1431-0.24818t0.37603-0.84231q0-0.51892-0.33091-0.77463-0.33091-0.2557-1.0454-0.2557z"/>
		<path d="m84.483 33.15v1.6771q0 0.30083-0.0376 0.56405h0.04512q0.19554-0.30835 0.52644-0.46628 0.33843-0.15793 0.7295-0.15793 0.73702 0 1.1055 0.35347 0.36851 0.34595 0.36851 1.1206v2.6247h-0.6543v-2.5796q0-0.97016-0.90248-0.97016-0.67686 0-0.93256 0.38355-0.24818 0.37603-0.24818 1.083v2.0832h-0.66182v-5.7157z"/>
		<path d="m88.365 38.459q0-0.27826 0.13537-0.39107 0.13537-0.11281 0.32339-0.11281 0.19554 0 0.33091 0.11281 0.14289 0.11281 0.14289 0.39107 0 0.27074-0.14289 0.39107-0.13537 0.12033-0.33091 0.12033-0.18802 0-0.32339-0.12033-0.13537-0.12033-0.13537-0.39107z"/>
		<path d="m94.867 36.128q0 1.3612-0.74454 2.0531-0.73702 0.68438-2.0607 0.68438h-1.4966v-5.3697h1.6545q0.81223 0 1.4064 0.30082 0.59413 0.30083 0.91752 0.88744 0.32339 0.57909 0.32339 1.444zm-0.71446 0.02256q0-1.0755-0.53396-1.5718-0.52644-0.50388-1.4966-0.50388h-0.87992v4.2116h0.7295q2.181 0 2.181-2.1359z"/>
		<path d="m95.577 38.459q0-0.27826 0.13537-0.39107 0.13537-0.11281 0.32339-0.11281 0.19554 0 0.33091 0.11281 0.14289 0.11281 0.14289 0.39107 0 0.27074-0.14289 0.39107-0.13537 0.12033-0.33091 0.12033-0.18802 0-0.32339-0.12033-0.13537-0.12033-0.13537-0.39107z"/>
	</g>
</svg>
