<svg width="400" height="300" version="1.1" viewBox="0 0 105.83 79.375" xmlns="http://www.w3.org/2000/svg">
	<path d="m89.957 39.365a37.042 37.042 0 0 1-37.042 37.042 37.042 37.042 0 0 1-37.042-37.042 37.042 37.042 0 0 1 37.042-37.042 37.042 37.042 0 0 1 37.042 37.042z" fill="none" stroke="#000" stroke-width=".31"/>
	<path d="m62.97 39.365a10.054 10.054 0 0 1-10.054 10.054 10.054 10.054 0 0 1-10.054-10.054 10.054 10.054 0 0 1 10.054-10.054 10.054 10.054 0 0 1 10.054 10.054z" fill="#ff8080"/>
	<path d="m60.059 39.365a7.1438 7.1438 0 0 1-7.1438 7.1438 7.1438 7.1438 0 0 1-7.1438-7.1438 7.1438 7.1438 0 0 1 7.1438-7.1438 7.1438 7.1438 0 0 1 7.1438 7.1438z" fill="#0f0"/>
	<path d="m57.149 39.365a4.2333 4.2333 0 0 1-4.2333 4.2333 4.2333 4.2333 0 0 1-4.2333-4.2333 4.2333 4.2333 0 0 1 4.2333-4.2333 4.2333 4.2333 0 0 1 4.2333 4.2333z" fill="#00f"/>
	<path d="m58.039 30.745 3.9808 4.4193s2.6872-2.2035 0.93662-4.6118-4.9174 0.19258-4.9174 0.19258z" fill="#ff8080"/>
</svg>
