<svg width="1024" height="576" version="1.1" viewBox="0 0 1024 576" xmlns="http://www.w3.org/2000/svg">
	<path d="m0 0h1024v576h-1024z" fill="#fff" stroke-width="2.7883"/>
	<g transform="matrix(21.075 0 0 21.075 174.8 -49.204)">
		<path d="m0 24.897 2.3247-3.2717q-0.80358-1.4063-0.80358-3.3291v-4.3049q0-2.8126 1.6359-4.4198 1.6359-1.6071 4.4484-1.6071 2.1811 0 3.6736 0.97581l1.3202-1.8368h2.6116l-2.4107 3.3865q0.88966 1.435 0.88966 3.4726v4.3336q0 2.8126-1.6359 4.4198-1.6359 1.6071-4.4484 1.6071-2.2959 0-3.8458-1.0906l-1.1766 1.6645zm3.9605-6.6009q0 0.48789 0.086099 0.88966l5.8547-8.2654q-0.9184-0.66008-2.2959-0.66008-1.722 0-2.6978 0.97581-0.94707 0.97581-0.94707 2.7552zm3.6448 3.731q1.722 0 2.669-0.97581 0.97581-1.0045 0.97581-2.7552v-4.3049q0-0.60269-0.1148-1.148l-5.9695 8.4092q0.9184 0.77491 2.4395 0.77491zm10.045 2.009 5.5964-8.1218-5.252-7.6629h3.0423l3.1283 4.8789q0.20088 0.31569 0.37308 0.68879 0.2009 0.37308 0.31569 0.60269 0.0861-0.22959 0.2583-0.60269 0.20088-0.3731 0.40179-0.68879l3.1283-4.8789h3.0421l-5.252 7.6913 5.5676 8.0934h-3.0421l-3.3865-5.1659q-0.20088-0.31569-0.40179-0.71748-0.1722-0.43049-0.31569-0.68879-0.1148 0.2583-0.3444 0.68879-0.2009 0.40179-0.43049 0.71748l-3.3865 5.1659z"/>
	</g>
</svg>
