<svg version="1.1" viewBox="0 0 80 15" xmlns="http://www.w3.org/2000/svg">
	<path d="m0.49373 0.53323h79v14h-79z" fill="#fff" stroke="#637bbb"/>
	<path d="m26.137 2.0284h51.876v11.105h-51.876z" fill="#637bbb"/>
	<path d="m7.4435 2.2063 1.9583 6.6578 1.9581-6.6578h5.3088v0.66182l-1.999 3.4438c0.70224 0.22511 1.2333 0.63502 1.5933 1.229 0.36024 0.59436 0.54054 1.2918 0.54054 2.093 0 0.99076-0.26369 1.8234-0.79048 2.4984s-1.2087 1.0127-2.0459 1.0127c-0.6304 0-1.1794-0.20005-1.6473-0.60072-0.46824-0.40067-0.81474-0.94294-1.0397-1.6274l1.1071-0.45911c0.16216 0.41418 0.37607 0.74059 0.64172 0.97886 0.26554 0.23862 0.57842 0.35805 0.93844 0.35805 0.3778 0 0.69774-0.2116 0.95877-0.63456 0.26126-0.42319 0.39189-0.93162 0.39189-1.5263 0-0.65731-0.13964-1.1661-0.41846-1.5261-0.32467-0.42296-0.83333-0.63479-1.5264-0.63479h-0.53985v-0.64807l1.8904-3.2683h-2.2817l-0.12982 0.22107-2.7756 9.3657h-0.13502l-2.0259-6.7788-2.0254 6.7788h-0.1349l-3.2405-10.937h1.4179l1.9581 6.6578 1.3236-4.4831-0.64807-2.1744h1.4175v-4.62e-4z" fill="#005a9c"/>
	<path d="m24.037 2.2063c-0.27836 0-0.5283 0.10037-0.71783 0.29279-0.20097 0.2042-0.31289 0.46789-0.31289 0.74059s0.10649 0.52541 0.30157 0.72372c0.19831 0.20097 0.45368 0.31023 0.72927 0.31023 0.26958 0 0.5313-0.10915 0.7347-0.307 0.19508-0.18954 0.30157-0.44213 0.30157-0.72638 0-0.2757-0.10915-0.53396-0.29845-0.72638-0.19635-0.20155-0.45507-0.30758-0.73689-0.30758zm0.89859 1.0423c0 0.23839-0.09229 0.45958-0.26103 0.62289-0.17822 0.17256-0.39928 0.26438-0.64334 0.26438-0.22938 0-0.45611-0.094479-0.62578-0.26692-0.16921-0.17256-0.26415-0.39339-0.26415-0.62867 0-0.2355 0.09771-0.46512 0.2727-0.64287 0.16355-0.16667 0.38438-0.25537 0.62555-0.25537 0.24706 0 0.46789 0.092285 0.64022 0.26692 0.16748 0.16609 0.25641 0.38958 0.25641 0.63964zm-0.86972-0.61458h-0.4419v1.1715h0.22107v-0.49942h0.21841l0.23828 0.49942h0.24682l-0.26149-0.53373c0.16921-0.034765 0.26715-0.14934 0.26715-0.31578 0.0012-0.21252-0.16054-0.32201-0.48741-0.32201zm-0.04042 0.14368c0.20663 0 0.30134 0.057519 0.30134 0.20097 0 0.13756-0.09471 0.18676-0.29603 0.18676h-0.18677v-0.38773h0.18134z"/>
	<path d="m22.299 2.145 0.22961 1.3964-0.813 1.5557s-0.31197-0.66008-0.83056-1.0251c-0.43671-0.30769-0.72141-0.37468-1.1666-0.28286-0.57161 0.11793-1.2198 0.80134-1.5027 1.644-0.33842 1.008-0.34176 1.4961-0.35378 1.9441-0.01894 0.71876 0.09425 1.143 0.09425 1.143s-0.49376-0.91314-0.48903-2.2506c0.0031-0.95496 0.15338-1.8207 0.59506-2.675 0.38866-0.75121 0.96639-1.2021 1.4792-1.2551 0.53015-0.054632 0.94883 0.20074 1.2728 0.47713 0.33968 0.2906 0.6833 0.92516 0.6833 0.92516l0.79926-1.5968z"/>
	<path d="m22.399 10.046s-0.35932 0.64253-0.58316 0.88993c-0.22396 0.24775-0.62462 0.68353-1.1193 0.90171-0.49469 0.21795-0.7541 0.25872-1.2432 0.21206-0.48845-0.04689-0.94248-0.32975-1.1015-0.44779-0.15904-0.11804-0.56572-0.46535-0.79568-0.78956-0.23008-0.32421-0.58928-0.97205-0.58928-0.97205s0.20005 0.64946 0.32571 0.92516c0.07196 0.15881 0.29349 0.64403 0.60822 1.0663 0.29348 0.39386 0.86336 1.0722 1.7294 1.2253 0.86602 0.15338 1.4611-0.23574 1.6085-0.32975 0.14703-0.09402 0.4575-0.35412 0.65419-0.56468 0.20501-0.21899 0.39928-0.49896 0.50647-0.66678 0.07877-0.12278 0.20663-0.37133 0.20663-0.37133l-0.20674-1.0777z"/>
	<g fill="#fff">
		<path d="m32.441 10.026c-0.26506 0.13753-0.54137 0.2413-0.82893 0.31132-0.28757 0.07002-0.58763 0.10502-0.90019 0.10502-0.9327-1e-6 -1.6716-0.26006-2.2167-0.78017-0.54512-0.52261-0.81768-1.2303-0.81768-2.123-1e-6 -0.89519 0.27256-1.6028 0.81768-2.123 0.54512-0.52261 1.284-0.78391 2.2167-0.78392 0.31256 5.7e-6 0.61263 0.035013 0.90019 0.10502 0.28756 0.070021 0.56387 0.17379 0.82893 0.31132v1.159c-0.26756-0.18254-0.53137-0.31631-0.79142-0.40134-0.26006-0.085014-0.53387-0.12752-0.82143-0.12753-0.51511 4.7e-6 -0.9202 0.16504-1.2153 0.49511-0.29506 0.33007-0.4426 0.78517-0.4426 1.3653-2e-6 0.57763 0.14753 1.0315 0.4426 1.3615 0.29506 0.33007 0.70015 0.49511 1.2153 0.49511 0.28756 9e-7 0.56137-0.042508 0.82143-0.12753 0.26005-0.085017 0.52386-0.2188 0.79142-0.40134v1.159"/>
		<path d="m37.688 4.9096v1.1853c-0.30757-0.13753-0.60764-0.2413-0.90019-0.31132-0.29257-0.07001-0.56888-0.10502-0.82893-0.10502-0.34508 4.7e-6 -0.60013 0.047515-0.76516 0.14253-0.16504 0.095025-0.24756 0.24256-0.24755 0.4426-2e-6 0.15004 0.05501 0.26756 0.16504 0.35258 0.11252 0.082521 0.31507 0.15379 0.60763 0.2138l0.61513 0.12378c0.62263 0.12503 1.0652 0.31507 1.3278 0.57012 0.26255 0.25506 0.39383 0.61764 0.39384 1.0877-5e-6 0.61763-0.1838 1.0777-0.55137 1.3803-0.36508 0.30006-0.92395 0.4501-1.6766 0.4501-0.35508-1e-6 -0.7114-0.03376-1.069-0.10127-0.35758-0.06752-0.71516-0.16754-1.0727-0.30006v-1.219c0.35758 0.19004 0.70265 0.33382 1.0352 0.43134 0.33507 0.095021 0.65764 0.14253 0.96771 0.14253 0.31506 9e-7 0.55637-0.05251 0.72391-0.15753 0.16753-0.10502 0.2513-0.25505 0.2513-0.4501-3e-6 -0.17504-0.05752-0.31006-0.17254-0.40509-0.11253-0.095018-0.33883-0.18004-0.6789-0.25505l-0.55887-0.12378c-0.56012-0.12002-0.97021-0.31131-1.2303-0.57387-0.25756-0.26255-0.38633-0.61638-0.38633-1.0615-1e-6 -0.55762 0.18004-0.98646 0.54012-1.2865 0.36008-0.30006 0.87769-0.45009 1.5528-0.4501 0.30756 5.7e-6 0.62388 0.023761 0.94895 0.071265 0.32507 0.045015 0.66139 0.11378 1.009 0.20629"/>
		<path d="m42.879 4.9096v1.1853c-0.30757-0.13753-0.60763-0.2413-0.90019-0.31132-0.29257-0.07001-0.56888-0.10502-0.82893-0.10502-0.34508 4.7e-6 -0.60013 0.047515-0.76516 0.14253-0.16504 0.095025-0.24756 0.24256-0.24755 0.4426-1e-6 0.15004 0.05501 0.26756 0.16504 0.35258 0.11252 0.082521 0.31506 0.15379 0.60763 0.2138l0.61513 0.12378c0.62263 0.12503 1.0652 0.31507 1.3278 0.57012 0.26255 0.25506 0.39383 0.61764 0.39383 1.0877-5e-6 0.61763-0.18379 1.0777-0.55137 1.3803-0.36508 0.30006-0.92395 0.4501-1.6766 0.4501-0.35508-1e-6 -0.7114-0.03376-1.069-0.10127-0.35758-0.06752-0.71516-0.16754-1.0727-0.30006v-1.219c0.35758 0.19004 0.70265 0.33382 1.0352 0.43134 0.33507 0.095021 0.65764 0.14253 0.96771 0.14253 0.31506 9e-7 0.55637-0.05251 0.72391-0.15753 0.16753-0.10502 0.2513-0.25505 0.2513-0.4501-4e-6 -0.17504-0.05752-0.31006-0.17254-0.40509-0.11253-0.095018-0.33883-0.18004-0.6789-0.25505l-0.55887-0.12378c-0.56012-0.12002-0.97021-0.31131-1.2303-0.57387-0.25756-0.26255-0.38633-0.61638-0.38633-1.0615-1e-6 -0.55762 0.18004-0.98646 0.54012-1.2865 0.36008-0.30006 0.87769-0.45009 1.5528-0.4501 0.30756 5.7e-6 0.62388 0.023761 0.94895 0.071265 0.32507 0.045015 0.66139 0.11378 1.009 0.20629"/>
		<path d="m50.062 7.3138c0.37758 0.097524 0.66389 0.26756 0.85894 0.51011 0.19754 0.24005 0.29631 0.54637 0.29631 0.91895-5e-6 0.55512-0.21255 0.97771-0.63764 1.2678-0.4251 0.28756-1.0452 0.43134-1.8604 0.43134-0.28756-1e-6 -0.57638-0.02376-0.86644-0.07127-0.28756-0.04501-0.57262-0.11377-0.85518-0.20629v-1.114c0.27006 0.13503 0.53762 0.23755 0.80267 0.30757 0.26756 0.067515 0.53011 0.10127 0.78767 0.10127 0.38258 9e-7 0.67514-0.066263 0.87769-0.19879 0.20504-0.13253 0.30756-0.32257 0.30757-0.57012-3e-6 -0.25505-0.10503-0.44759-0.31507-0.57762-0.20755-0.13252-0.51511-0.19879-0.9227-0.19879h-0.57762v-0.9302h0.60763c0.36258 3.4e-6 0.63263-0.056259 0.81017-0.16879 0.17754-0.11502 0.2663-0.28881 0.26631-0.52136-3e-6 -0.21504-0.08627-0.38133-0.25881-0.49886-0.17254-0.11752-0.41634-0.17628-0.73141-0.17629-0.23255 4.7e-6 -0.4676 0.02626-0.70515 0.078767-0.23755 0.052516-0.47385 0.13003-0.7089 0.23255v-1.0577c0.28506-0.080012 0.56762-0.14002 0.84768-0.18004 0.28006-0.040003 0.55512-0.060007 0.82518-0.060013 0.72765 5.7e-6 1.2715 0.12003 1.6316 0.36008 0.36257 0.23756 0.54386 0.59638 0.54387 1.0765-4e-6 0.32757-0.08627 0.59638-0.2588 0.80642-0.17254 0.20755-0.4276 0.35383-0.76516 0.43884"/>
		<path d="m52.609 8.8817h1.3503v1.4516h-1.3503v-1.4516"/>
		<path d="m58.284 7.5276c-4e-6 -0.70015-0.066268-1.1928-0.19879-1.4778-0.13003-0.28756-0.35008-0.43134-0.66014-0.43134-0.31007 4.7e-6 -0.53137 0.14379-0.66389 0.43134-0.13253 0.28507-0.1988 0.77767-0.19879 1.4778-2e-6 0.70765 0.06626 1.2065 0.19879 1.4966 0.13253 0.29006 0.35382 0.43509 0.66389 0.43509 0.30756 9e-7 0.52761-0.14503 0.66014-0.43509 0.13252-0.29006 0.19879-0.78892 0.19879-1.4966m1.4441 0.011253c-5e-6 0.9277-0.20005 1.6441-0.60013 2.1492-0.40009 0.50261-0.96771 0.75391-1.7029 0.75391-0.73766 0-1.3065-0.2513-1.7066-0.75391-0.40009-0.50511-0.60013-1.2215-0.60013-2.1492 0-0.9302 0.20004-1.6466 0.60013-2.1492 0.40008-0.5051 0.96896-0.75766 1.7066-0.75766 0.73515 5.7e-6 1.3028 0.25256 1.7029 0.75766 0.40008 0.50261 0.60012 1.219 0.60013 2.1492"/>
	</g>
</svg>
