<svg width="32" height="32" version="1.1" viewBox="0 0 32 32" xmlns="http://www.w3.org/2000/svg">
	<path d="m1e-7 2.2857c0-1.2643 1.0214-2.2857 2.2857-2.2857 16.414 0 29.714 13.3 29.714 29.714 0 1.2643-1.0214 2.2857-2.2857 2.2857s-2.2857-1.0214-2.2857-2.2857c0-13.886-11.257-25.143-25.143-25.143-1.2643 0-2.2857-1.0214-2.2857-2.2857zm0 25.143c0-2.5214 2.05-4.5714 4.5714-4.5714 2.5214 0 4.5714 2.05 4.5714 4.5714 0 2.5214-2.05 4.5714-4.5714 4.5714-2.5214 0-4.5714-2.05-4.5714-4.5714zm2.2857-18.286c11.364 0 20.571 9.2071 20.571 20.571 0 1.2643-1.0214 2.2857-2.2857 2.2857-1.2643 0-2.2857-1.0214-2.2857-2.2857 0-8.8357-7.1643-16-16-16-1.2643 0-2.2857-1.0214-2.2857-2.2857 0-1.2643 1.0214-2.2857 2.2857-2.2857z" fill="#e3702d"/>
</svg>
